<?xml version="1.0" encoding="UTF-8"?>
<!-- Generated by Pixelmator Pro 3.3.2 -->
<svg width="999" height="618" viewBox="0 0 999 618" xmlns="http://www.w3.org/2000/svg" xmlns:xlink="http://www.w3.org/1999/xlink">
    <g id="Group">
        <path id="rect19" fill="#ff5a00" stroke="none" d="M 364 66.099976 L 634.400024 66.099976 L 634.400024 551.900024 L 364 551.900024 Z"/>
        <path id="XMLID330" fill="#eb001b" stroke="none" d="M 382 309 C 382 210.299988 428.399994 122.700012 499.600006 66.099976 C 447.200012 24.900024 381.100006 0 309 0 C 138.199997 0 0 138.200012 0 309 C 0 479.799988 138.199997 618 309 618 C 381.100006 618 447.200012 593.099976 499.600006 551.900024 C 428.299988 496.100006 382 407.700012 382 309 Z"/>
        <path id="path22" fill="#f79e1b" stroke="none" d="M 999.200012 309 C 999.200012 479.799988 861 618 690.200012 618 C 618.099976 618 552 593.099976 499.600006 551.900024 C 571.700012 495.200012 617.200012 407.700012 617.200012 309 C 617.200012 210.299988 570.799988 122.700012 499.600006 66.099976 C 551.900024 24.900024 618 0 690.099976 0 C 861 0 999.200012 139.099976 999.200012 309 Z"/>
    </g>
</svg>
