<?xml version="1.0" encoding="UTF-8"?>
<!-- Generated by Pixelmator Pro 3.3.2 -->
<svg width="352" height="96" viewBox="0 0 352 96" xmlns="http://www.w3.org/2000/svg" xmlns:xlink="http://www.w3.org/1999/xlink">
    <path id="Path" fill="#0f754e" stroke="none" d="M 0 0 L 33 0 C 36 0 45 -1 49 13 C 52 22 56 36 62 57 L 64 57 C 70 35 75 20 77 13 C 81 -1 91 0 95 0 L 126 0 L 126 96 L 94 96 L 94 39 L 92 39 L 75 96 L 51 96 L 34 39 L 31 39 L 31 96 L 0 96 M 139 0 L 171 0 L 171 57 L 174 57 L 195 10 C 199 1 208 0 208 0 L 238 0 L 238 96 L 206 96 L 206 39 L 204 39 L 183 86 C 179 95 169 96 169 96 L 139 96 M 281 67 L 281 96 L 251 96 L 251 46 L 349 46 C 345 58 331 67 315 67"/>
    <linearGradient id="linearGradient1" x1="339" y1="-13" x2="259" y2="-13" gradientUnits="userSpaceOnUse">
        <stop offset="1e-05" stop-color="#1f5cd7" stop-opacity="1"/>
        <stop offset="1" stop-color="#02aeff" stop-opacity="1"/>
    </linearGradient>
    <path id="path1" fill="url(#linearGradient1)" stroke="none" d="M 351 40 C 355 22 343 0 317 0 L 249 0 C 251 21 269 40 288 40"/>
</svg>
