<?xml version="1.0" encoding="UTF-8"?>
<!-- Generated by Pixelmator Pro 3.3.2 -->
<svg width="130" height="130" viewBox="0 0 130 130" xmlns="http://www.w3.org/2000/svg" xmlns:xlink="http://www.w3.org/1999/xlink">
    <path id="path66" fill="#5b57a2" stroke="none" d="M 16 31.120003 L 30.532 57.095001 L 30.532 72.939003 L 16.017 98.862999 L 16 31.120003 Z"/>
    <path id="path68" fill="#d90751" stroke="none" d="M 71.797005 47.643005 L 85.414001 39.296997 L 113.281998 39.270996 L 71.797005 64.684998 L 71.797005 47.643005 Z"/>
    <path id="path70" fill="#fab718" stroke="none" d="M 71.720001 30.966995 L 71.796997 65.356995 L 57.230999 56.406998 L 57.230999 5 L 71.721001 30.966995 Z"/>
    <path id="path72" fill="#ed6f26" stroke="none" d="M 113.281998 39.270996 L 85.413002 39.296997 L 71.720001 30.966995 L 57.230999 5 L 113.280998 39.270996 Z"/>
    <path id="path74" fill="#63b22f" stroke="none" d="M 71.796997 99.007004 L 71.796997 82.321999 L 57.230999 73.542 L 57.238998 125 L 71.796997 99.007004 Z"/>
    <path id="path76" fill="#1487c9" stroke="none" d="M 85.379997 90.737 L 30.531 57.095001 L 16 31.120003 L 113.223 90.703003 L 85.378998 90.737 Z"/>
    <path id="path78" fill="#017f36" stroke="none" d="M 57.240002 125 L 71.796005 99.007004 L 85.378998 90.737 L 113.222 90.703003 L 57.240002 125 Z"/>
    <path id="path80" fill="#984995" stroke="none" d="M 16.017 98.862999 L 57.349998 73.542999 L 43.453999 65.016998 L 30.532 72.939003 L 16.017 98.862999 Z"/>
</svg>
