<?xml version="1.0" encoding="UTF-8"?>
<!-- Generated by Pixelmator Pro 3.3.2 -->
<svg width="1000" height="324" viewBox="0 0 1000 324" xmlns="http://www.w3.org/2000/svg" xmlns:xlink="http://www.w3.org/1999/xlink">
    <path id="Path" fill="#1434cb" stroke="none" d="M 651.190002 -0.179993 C 580.26001 -0.179993 516.869995 36.589996 516.869995 104.51001 C 516.869995 182.410004 629.289978 187.790009 629.289978 226.929993 C 629.289978 243.410004 610.409973 258.160004 578.150024 258.160004 C 532.380005 258.160004 498.170013 237.549988 498.170013 237.549988 L 483.529999 306.100006 C 483.529999 306.100006 522.940002 323.51001 575.26001 323.51001 C 652.809998 323.51001 713.840027 284.940002 713.840027 215.850006 C 713.840027 133.530014 600.950012 128.310013 600.950012 91.990005 C 600.950012 79.080002 616.450012 64.940002 648.609985 64.940002 C 684.900024 64.940002 714.5 79.930008 714.5 79.930008 L 728.830017 13.730011 C 728.830017 13.730011 696.609985 -0.179993 651.179993 -0.179993 L 651.179993 -0.179993 Z M 2.22 4.820007 L 0.5 14.809998 C 0.5 14.809998 30.34 20.269989 57.220001 31.170013 C 91.830002 43.660004 94.290001 50.940002 100.120003 73.520004 L 163.630005 318.350006 L 248.770004 318.350006 L 379.929993 4.820007 L 294.98999 4.820007 L 210.710007 217.98999 L 176.320007 37.290009 C 173.169998 16.610016 157.190002 4.809998 137.639999 4.809998 C 137.639999 4.809998 2.23 4.809998 2.23 4.809998 Z M 414.089996 4.820007 L 347.459991 318.350006 L 428.459991 318.350006 L 494.850006 4.820007 L 414.089996 4.820007 Z M 865.849976 4.820007 C 846.320007 4.820007 835.969971 15.279999 828.380005 33.549988 L 709.710022 318.350006 L 794.650024 318.350006 L 811.080017 270.880005 L 914.559998 270.880005 L 924.549988 318.350006 L 999.5 318.350006 L 934.119995 4.820007 L 865.849976 4.820007 Z M 876.900024 89.529999 L 902.080017 207.179993 L 834.630005 207.179993 L 876.909973 89.529999 L 876.909973 89.529999 Z"/>
</svg>
