<svg width="66" height="100" viewBox="0 0 66 100" fill="none" xmlns="http://www.w3.org/2000/svg">
<path d="M31.5667 0.218165L33.0698 0.208465C40.224 0.218901 47.3438 2.63357 52.9868 7.00562C59.6926 12.1333 64.2768 19.9218 65.3998 28.2653C66.3598 34.2358 64.7824 40.2361 62.9483 45.885C61.9431 48.8016 60.7232 51.6464 59.3051 54.3892C57.8242 57.2456 56.1384 60.0034 54.2575 62.6194C53.1027 64.1818 51.8744 65.7446 51.2473 67.6066C49.9791 71.2475 49.7505 75.1646 49.8996 78.9894C47.2282 79.0167 44.5532 78.9907 41.8823 79.0745C42.0402 77.6317 42.2115 76.1922 42.3894 74.7526C44.1138 74.7948 45.8412 74.7936 47.5644 74.6626C47.7409 70.9656 48.3024 67.2794 49.3335 63.7233C49.8867 61.8085 50.8491 60.0342 52.0472 58.4416C56.119 53.0013 59.2622 46.8744 61.3018 40.4017C62.324 37.0122 63.1614 33.5339 63.3355 29.9867C63.3171 23.6339 61.029 17.3056 56.9659 12.3973C53.2094 7.76335 47.9412 4.39111 42.1663 2.84679C36.7705 1.44319 30.9564 1.58726 25.6859 3.43261C18.1064 5.93881 11.7678 11.8166 8.6557 19.1253C6.69457 23.7895 5.79187 29.0462 6.84924 34.0438C8.55975 43.1527 12.7105 51.7098 18.3429 59.0553C19.8957 61.0031 20.755 63.3816 21.36 65.7651C22.0892 68.7238 22.4908 71.7545 22.7151 74.7897C23.1405 74.8336 23.5659 74.8741 23.9881 74.9213C24.1816 76.3419 24.3717 77.7624 24.5418 79.1897C21.8766 79.1337 19.2089 79.2008 16.5442 79.2047C16.6593 75.3482 16.409 71.4009 15.0759 67.7468C14.3834 65.7801 13.0103 64.1741 11.7808 62.5239C9.9294 59.9687 8.2513 57.2958 6.78 54.5084C6.54607 54.0637 6.31549 53.619 6.08824 53.171C5.75915 52.5105 5.44007 51.8433 5.131 51.1727C4.5535 49.9012 4.01941 48.6127 3.5187 47.3107C3.19502 46.4538 2.88468 45.59 2.60105 44.7162C1.0519 39.7683 -0.267966 34.5626 0.377205 29.3442C1.20668 21.1079 5.39 13.2895 11.749 7.95765C17.2452 3.26732 24.3445 0.551123 31.5667 0.218165Z" fill="#F3B840"/>
<path d="M25.7568 74.8516C30.7053 74.9195 35.6522 74.7411 40.601 74.849C40.4328 76.2555 40.268 77.6586 40.0965 79.0651C35.5067 79.0681 30.9171 79.1011 26.3276 79.154C26.1373 77.7199 25.9471 76.2857 25.7568 74.8516Z" fill="#F3B840"/>
<path d="M25.6861 3.43448C30.9566 1.58914 36.7707 1.44507 42.1664 2.84866C47.9414 4.39298 53.2095 7.76522 56.9661 12.3992C61.0291 17.3075 63.3172 23.6357 63.3356 29.9886C63.1615 33.5358 62.3241 37.014 61.3019 40.4035C59.2623 46.8762 56.1191 53.0031 52.0473 58.4434C50.8493 60.036 49.8868 61.8103 49.3337 63.7251C48.3026 67.2811 47.741 70.9673 47.5646 74.6644C45.8414 74.7954 44.1139 74.7965 42.3896 74.7544C43.4656 65.8306 44.5215 56.907 45.6109 47.9832C45.034 47.8038 44.4636 47.6077 43.8866 47.4283C43.8078 48.1813 43.7325 48.9343 43.6705 49.6872C43.122 48.7584 42.4968 47.3573 41.1563 47.659C39.7933 48.094 39.4927 49.7174 38.8001 50.7941C37.9957 49.6272 37.5802 47.5422 35.7933 47.6603C34.9397 48.6913 34.3755 49.9336 33.421 50.892C32.6104 49.8118 32.2972 47.9992 30.7787 47.7026C29.0375 47.6506 28.693 49.7305 27.8669 50.8546C27.133 49.724 26.7552 47.7752 25.1012 47.7326C23.5823 47.8923 23.2358 49.6625 22.5534 50.7557C22.4024 49.6912 22.2581 48.6267 22.1038 47.5655C21.5794 47.7387 21.0414 47.892 20.534 48.1084C20.4506 49.1677 20.7052 50.2116 20.8293 51.2597C21.8923 59.1441 22.9353 67.0353 23.9883 74.9231C23.5661 74.8759 23.1407 74.8353 22.7153 74.7914C22.491 71.7563 22.0894 68.7255 21.3602 65.7669C20.7553 63.3834 19.8959 61.0049 18.3431 59.0571C12.7107 51.7116 8.55999 43.1545 6.84949 34.0457C5.79212 29.048 6.69482 23.7913 8.65595 19.1272C11.768 11.8185 18.1066 5.94068 25.6861 3.43448Z" fill="#F0CB69"/>
<path d="M30.5829 49.0916C31.3533 50.1655 31.6894 51.8881 33.1445 52.2216C34.7385 52.2879 35.5918 50.7108 36.3811 49.587C36.9569 50.6021 37.4128 52.2174 38.8556 52.1948C40.4243 51.9948 40.7435 50.1415 41.4894 49.0312C42.062 50.0664 42.648 51.0948 43.3206 52.0727C42.4434 59.6666 41.5059 67.2577 40.6019 74.8518C35.6532 74.7439 30.7064 74.9223 25.7581 74.8543C24.7814 67.3789 23.7245 59.914 22.7981 52.4349C23.9848 51.6581 24.5384 50.3293 25.1632 49.1233C25.927 50.2171 26.2638 52.0429 27.8086 52.2694C29.4923 52.2419 29.8574 50.2484 30.5829 49.0916Z" fill="#F0CB69"/>
<path d="M39 8C52 10.5 56.5 18.5 58.6494 32.916" stroke="#F4DA80" stroke-width="4" stroke-linecap="round"/>
<path d="M14.6315 79.9582C15.1129 79.3591 15.95 79.3703 16.6493 79.3092C19.3403 79.2153 22.0359 79.3177 24.7267 79.1872C25.2589 79.1771 25.7912 79.1636 26.3267 79.1535C30.9162 79.1006 35.5059 79.0677 40.0957 79.0647C40.6046 79.068 41.1168 79.0747 41.6324 79.0781C44.6497 79.2184 47.681 78.9425 50.6955 79.1628C51.9207 79.1482 52.7374 80.638 52.0712 81.6545C51.6745 82.4229 50.6968 82.4059 49.9716 82.6038C49.9726 83.263 49.977 83.9223 49.9847 84.5816C51.0064 84.6848 52.3681 85.049 52.3397 86.3278C52.4388 87.6491 51.0455 88.0643 49.995 88.1743C50.0094 88.8302 50.0238 89.4894 50.0449 90.1519C51.0901 90.255 52.4788 90.6656 52.377 91.9882C52.4054 93.2533 51.062 93.6216 50.0552 93.7546C50.0452 94.7769 50.1324 95.8153 49.945 96.832C49.7628 97.6324 48.9349 97.994 48.3488 98.4706C47.8312 99.1799 47.1765 99.9066 46.1913 99.7632C37.7118 99.8312 29.2287 99.8693 20.7491 99.9373C19.2943 100.16 18.6083 98.6925 17.566 98C16.2777 97.0793 16.8417 95.2909 16.6956 93.9533C15.6673 93.87 14.3023 93.5059 14.314 92.2305C14.2015 90.9093 15.5879 90.4575 16.6554 90.3907C16.661 89.7147 16.6733 89.042 16.6789 88.3693C16.166 88.2694 15.6467 88.2062 15.1501 88.0462C14.2368 87.6259 14.0005 86.3122 14.6349 85.5622C15.1062 84.9432 15.9703 84.9942 16.6521 84.8133C16.6409 84.1374 16.6264 83.4616 16.6119 82.7891C16.0924 82.6892 15.5597 82.626 15.0564 82.4595C14.1762 81.989 13.9701 80.6917 14.6315 79.9582ZM15.737 80.0776C14.9355 80.3725 15.0083 81.7738 15.9556 81.7544C21.9656 81.8488 27.987 81.6568 34 81.7046C34.6525 81.6537 35.3999 81.7854 35.9697 81.3789C36.1311 80.9749 36.1251 80.572 35.9584 80.1735C35.3933 79.771 34.6578 79.9189 34.0114 79.8831C27.9226 80.0056 21.8187 79.8852 15.737 80.0776ZM15.7687 85.3817C14.7867 85.7277 15.263 87.3895 16.3057 87.1131C22.5625 87.0827 28.8159 87.0357 35.0727 86.9887C35.854 87.1801 36.5268 86.1468 35.947 85.5512C35.6963 85.1066 35.1548 85.2233 34.7361 85.1994C28.4162 85.3068 22.0849 85.2145 15.7687 85.3817ZM15.7927 91.0622C14.9806 91.2672 15.1345 92.7846 16.0315 92.7522C22.4894 92.7471 28.9571 92.7054 35.4145 92.6238C36.3152 92.6413 36.476 91.1385 35.6176 90.9309C34.2205 90.7668 32.812 90.9157 31.4125 90.8915C26.2072 90.9717 20.9904 90.8422 15.7927 91.0622Z" fill="#2E343B"/>
<path d="M20.5327 48.1068C21.0401 47.8904 21.5781 47.7371 22.1026 47.5639C22.2569 48.6251 22.4011 49.6897 22.5521 50.7542C23.2345 49.661 23.5811 47.8907 25.0999 47.7311C26.7539 47.7737 27.1317 49.7224 27.8656 50.8531C28.6918 49.729 29.0363 47.6491 30.7774 47.7011C32.2959 47.9976 32.6091 49.8102 33.4197 50.8905C34.3742 49.932 34.9385 48.6898 35.792 47.6587C37.5789 47.5406 37.9944 49.6257 38.7989 50.7925C39.4914 49.7159 39.7921 48.0924 41.1551 47.6574C42.4955 47.3558 43.1207 48.7568 43.6692 49.6856C43.7312 48.9327 43.8066 48.1797 43.8853 47.4267C44.4623 47.6061 45.0327 47.8022 45.6097 47.9816C44.5203 56.9055 43.4643 65.8291 42.3883 74.7528C42.2103 76.1924 42.0391 77.6319 41.8812 79.0747L41.6335 79.0796C41.1179 79.0763 40.6057 79.0696 40.0968 79.0662C40.2683 77.66 40.4331 76.2571 40.6013 74.8509C41.5053 67.2568 42.4428 59.6658 43.32 52.0719C42.6474 51.094 42.0615 50.0656 41.4889 49.0304C40.7429 50.1407 40.4238 51.994 38.855 52.1939C37.4123 52.2166 36.9564 50.6013 36.3806 49.5861C35.5912 50.71 34.7379 52.2871 33.1439 52.2208C31.6888 51.8872 31.3527 50.1646 30.5824 49.0908C29.8569 50.2475 29.4917 52.241 27.808 52.2685C26.2632 52.0421 25.9264 50.2163 25.1626 49.1224C24.5379 50.3285 23.9842 51.6573 22.7975 52.4341C23.724 59.9131 24.7809 67.3781 25.7575 74.8535C25.9477 76.2874 26.138 77.7212 26.3282 79.1551C25.7926 79.1652 25.2604 79.1786 24.7282 79.1887L24.5407 79.1899C24.3706 77.7626 24.1805 76.342 23.987 74.9215C22.934 67.0337 21.891 59.1425 20.828 51.2581C20.7039 50.2101 20.4493 49.1662 20.5327 48.1068Z" fill="#484F59"/>
<path d="M15.7379 80.0769C21.8197 79.8844 27.9237 80.0049 34.0126 79.8823C34.659 79.9181 35.3945 79.7702 35.9596 80.1729C36.1263 80.5715 36.1323 80.9745 35.9709 81.3786C35.4011 81.7853 34.6537 81.6535 34.0012 81.7044C27.9881 81.6566 21.9666 81.8487 15.9565 81.7542C15.0092 81.7737 14.9364 80.3719 15.7379 80.0769Z" fill="#484F59"/>
<path d="M15.7688 85.3807C22.0852 85.2133 28.4166 85.3057 34.7366 85.1983C35.1553 85.2222 35.6969 85.1055 35.9475 85.5502C36.5273 86.146 35.8545 87.1796 35.0732 86.9881C28.8163 87.0351 22.5628 87.0822 16.3059 87.1126C15.2632 87.3891 14.7868 85.7268 15.7688 85.3807Z" fill="#484F59"/>
<path d="M15.7927 91.0612C20.9904 90.8411 26.2073 90.9707 31.4127 90.8904C32.8122 90.9147 34.2207 90.7657 35.6179 90.9299C36.4763 91.1375 36.3154 92.6408 35.4148 92.6233C28.9573 92.7049 22.4895 92.7467 16.0315 92.7517C15.1345 92.7842 14.9805 91.2663 15.7927 91.0612Z" fill="#484F59"/>
</svg>
