<svg width="80" height="88" viewBox="0 0 80 88" fill="none" xmlns="http://www.w3.org/2000/svg">
<path d="M57.9895 1.5H57.9677L57.9459 1.50063C52.9898 1.64465 48.151 3.86434 44.6229 7.61825L44.6154 7.62619L44.608 7.63424L44.6074 7.63498C43.2079 9.16801 41.8061 10.7037 40.4096 12.2461C39.2949 13.4712 38.7768 15.2223 38.9988 16.8785C39.225 18.7436 40.4021 20.465 42.0962 21.2331C44.0534 22.1548 46.4116 21.624 47.8552 20.02C48.6803 19.1217 49.5029 18.2146 50.3219 17.3115C50.7545 16.8345 51.186 16.3586 51.6164 15.8858L51.6293 15.8716L51.6419 15.8571C53.6554 13.5277 56.6406 12.3512 59.4619 12.6942L59.4723 12.6955L59.4828 12.6966C61.6093 12.9249 63.6879 14.0074 65.2381 15.7265L65.2381 15.7265L65.2453 15.7344C66.8285 17.4649 67.8566 19.8492 68.0553 22.342L68.0558 22.3491L68.0565 22.3563C68.3364 25.4892 67.2854 28.7082 65.3085 30.8929C64.3301 31.9694 63.3518 33.046 62.3735 34.1226C58.4616 38.4274 54.5503 42.7317 50.6351 47.032L50.63 47.0377C49.0562 48.7841 46.9452 49.8771 44.7891 50.0863L44.7803 50.0871L44.7714 50.0881C42.4257 50.3438 39.975 49.5831 38.0844 47.9608L38.0605 47.9402L38.0357 47.9207C37.8398 47.7664 37.6766 47.5974 37.4419 47.3545C37.362 47.2718 37.2738 47.1804 37.1731 47.0782C36.8321 46.7316 36.3551 46.2717 35.722 45.9474C34.2936 45.1867 32.5538 45.175 31.114 45.9462C29.5558 46.7623 28.4889 48.401 28.2706 50.1672C28.0527 51.7765 28.5283 53.5002 29.6093 54.7246L29.6092 54.7246L29.6162 54.7324C31.9223 57.3084 34.8292 59.2642 38.0199 60.3217C43.583 62.1955 49.8574 61.2706 54.7289 57.7904C56.6332 56.4721 58.2454 54.6665 59.7071 53.0294C60.1627 52.5191 60.6038 52.0252 61.0345 51.5675L61.0435 51.5579L61.0524 51.5481C62.5564 49.8925 64.0619 48.237 65.5679 46.5811C68.0163 43.8889 70.4656 41.1956 72.9106 38.4993L72.9155 38.4938L72.9204 38.4883C76.3208 34.6638 78.2954 29.4787 78.4986 24.2107L78.4997 24.1818V24.1529V22.7951V22.7631L78.4983 22.7311C78.4442 21.4659 78.3247 20.1711 78.0791 18.8859C77.1373 13.8217 74.4582 9.18976 70.6962 6.02903C67.384 3.21552 63.246 1.63054 59.0476 1.50072L59.0244 1.5H59.0012H57.9895Z" fill="black" stroke="black" stroke-width="3"/>
<path d="M50.7577 32.2759L50.7539 32.2716C47.6006 28.7259 43.2963 26.397 38.7442 25.8635C33.9953 25.2665 29.0785 26.5804 25.1586 29.5578C23.636 30.6681 22.3577 32.0879 21.2084 33.3643C21.1028 33.4816 20.9984 33.5976 20.8949 33.712C19.1483 35.6314 17.4046 37.5507 15.6616 39.4693C13.1925 42.1871 10.7246 44.9036 8.25084 47.6173L8.24855 47.6198C8.14928 47.7292 8.04785 47.8403 7.94484 47.9532C7.25745 48.706 6.49949 49.5362 5.83998 50.4581C3.14548 54.1443 1.62518 58.7821 1.50053 63.4593L1.5 63.4793V63.4993V64.8856V64.9167L1.50129 64.9477C1.73193 70.514 3.94169 75.9857 7.69691 79.8585C11.2261 83.5628 16.0391 85.7478 20.9598 85.8986L20.9827 85.8993H21.0057H22.2472H22.2876L22.328 85.8972C26.4538 85.6746 30.5154 84.0902 33.7754 81.2982C34.7822 80.4573 35.6929 79.4509 36.5161 78.541C36.752 78.2804 36.9806 78.0277 37.2023 77.7891L37.2122 77.7785L37.2218 77.7677C37.6107 77.3327 38.04 76.8628 38.4761 76.3853C39.0071 75.8041 39.5482 75.2118 40.039 74.6576L40.0445 74.6514C41.3615 73.1475 41.7609 70.8979 41.1197 69.008C40.5256 67.1892 38.9751 65.704 37.0685 65.3844C35.3738 65.0725 33.647 65.7254 32.5065 66.9859C31.6961 67.8703 30.8814 68.7662 30.0693 69.6594C29.4329 70.3593 28.7981 71.0576 28.168 71.7472C26.8428 73.1906 25.1299 74.1695 23.3323 74.5598L23.3275 74.5608C21.0252 75.0687 18.5329 74.5803 16.5154 73.1958L16.5155 73.1958L16.5066 73.1898C14.8182 72.0488 13.4406 70.2893 12.6638 68.2253L12.6639 68.2253L12.6591 68.2128C11.5409 65.3205 11.6709 61.8659 12.9954 59.0894L13.0011 59.0775L13.0065 59.0655C13.5367 57.9018 14.3199 56.8569 15.241 55.9007L15.2562 55.8849L15.271 55.8687C18.2812 52.5552 21.2927 49.2442 24.3045 45.9331C25.5082 44.6098 26.7118 43.2864 27.9155 41.9629C28.1921 41.662 28.4543 41.3695 28.7073 41.0874C29.8632 39.7982 30.8258 38.7247 32.0787 38.0531L32.1052 38.0389L32.1311 38.0237C35.5605 36.0046 40.1583 36.6736 42.9874 39.7053C44.005 40.8969 45.5796 41.7766 47.3349 41.611C49.534 41.4573 51.3649 39.7462 51.9293 37.6434C52.4415 35.8205 52.0235 33.7103 50.7577 32.2759Z" fill="black" stroke="black" stroke-width="3"/>
</svg>
