<svg width="16" height="17" viewBox="0 0 16 17" fill="none" xmlns="http://www.w3.org/2000/svg">
<g clip-path="url(#clip0_3_69)">
<path d="M14.1987 9.75668L13.898 9.58401C13.966 9.22201 14 8.85868 14 8.50001C14 8.14134 13.9653 7.77801 13.898 7.41601L14.198 7.24334C14.6613 6.97734 14.9933 6.54601 15.132 6.03068C15.2713 5.51534 15.2013 4.97534 14.9353 4.51334C14.6693 4.05001 14.238 3.71801 13.7227 3.57934C13.206 3.44001 12.6673 3.51001 12.2053 3.77601L11.9053 3.94868C11.344 3.46868 10.698 3.09601 10.0007 2.84934V2.50134C10.0007 1.39868 9.10333 0.501343 8.00067 0.501343C6.898 0.501343 6.00067 1.39868 6.00067 2.50134V2.84934C5.30267 3.09601 4.65667 3.46868 4.096 3.94868L3.796 3.77601C3.334 3.51134 2.79467 3.44068 2.278 3.57934C1.76267 3.71801 1.332 4.05001 1.066 4.51268C0.799333 4.97534 0.729333 5.51468 0.868666 6.03068C1.00733 6.54601 1.33933 6.97668 1.80267 7.24334L2.10333 7.41668C2.03533 7.77934 2.00133 8.14201 2.00133 8.50001C2.00133 8.85801 2.03533 9.22068 2.10333 9.58334L1.80267 9.75668C1.33933 10.0233 1.008 10.454 0.868666 10.9693C0.729333 11.4853 0.799333 12.0247 1.06533 12.4867C1.33133 12.95 1.762 13.282 2.278 13.4207C2.792 13.5593 3.33267 13.49 3.796 13.224L4.096 13.0513C4.65667 13.532 5.30267 13.904 6.00067 14.1507V14.4987C6.00067 15.6013 6.898 16.4987 8.00067 16.4987C9.10333 16.4987 10.0007 15.6013 10.0007 14.4987V14.1507C10.6987 13.904 11.3447 13.5307 11.9053 13.0513L12.2047 13.224C12.668 13.4893 13.208 13.5593 13.7227 13.4207C14.238 13.282 14.6693 12.95 14.9353 12.4873C15.2013 12.0247 15.2713 11.4847 15.132 10.9693C14.9933 10.454 14.6613 10.0227 14.1987 9.75668ZM12.4947 7.26201C12.6087 7.67601 12.6667 8.09268 12.6667 8.50001C12.6667 8.90734 12.6087 9.32401 12.4947 9.73801C12.414 10.0307 12.5413 10.3413 12.8047 10.4933L13.534 10.9127C13.688 11.0013 13.7987 11.1453 13.8453 11.3167C13.892 11.4887 13.8687 11.6673 13.7793 11.8227C13.6907 11.9767 13.5467 12.0873 13.3753 12.134C13.202 12.1807 13.0247 12.1573 12.8693 12.068L12.142 11.65C11.88 11.5 11.5467 11.5447 11.3333 11.762C10.7407 12.3673 9.99133 12.8 9.16667 13.0133C8.87267 13.0887 8.66667 13.3547 8.66667 13.6587V14.5C8.66667 14.868 8.36733 15.1667 8 15.1667C7.63267 15.1667 7.33333 14.868 7.33333 14.5V13.6587C7.33333 13.3547 7.12733 13.0893 6.83333 13.0133C6.008 12.8 5.25933 12.3673 4.66667 11.762C4.538 11.6307 4.36467 11.5613 4.19 11.5613C4.07667 11.5613 3.962 11.5907 3.858 11.65L3.13067 12.068C2.976 12.1567 2.79667 12.18 2.62467 12.134C2.45267 12.088 2.30933 11.9773 2.22067 11.822C2.132 11.668 2.10867 11.4887 2.15467 11.3167C2.20133 11.1447 2.312 11.0007 2.466 10.9127L3.19467 10.4933C3.458 10.3413 3.58533 10.0313 3.50533 9.73868C3.39133 9.32268 3.33333 8.90601 3.33333 8.50001C3.33333 8.09401 3.39133 7.67734 3.50533 7.26134C3.586 6.96934 3.458 6.65868 3.19467 6.50668L2.466 6.08734C2.312 5.99868 2.20133 5.85468 2.15467 5.68334C2.10867 5.51134 2.132 5.33268 2.22067 5.17734C2.30933 5.02334 2.45267 4.91268 2.62467 4.86601C2.79667 4.81868 2.976 4.84201 3.13067 4.93201L3.858 5.35001C4.122 5.50134 4.45467 5.45468 4.66667 5.23801C5.25933 4.63268 6.008 4.20001 6.83333 3.98668C7.12733 3.91134 7.33333 3.64534 7.33333 3.34134V2.50001C7.33333 2.13201 7.63267 1.83334 8 1.83334C8.36733 1.83334 8.66667 2.13201 8.66667 2.50001V3.34134C8.66667 3.64534 8.87267 3.91068 9.16667 3.98668C9.99133 4.20001 10.7407 4.63268 11.3333 5.23801C11.546 5.45601 11.8787 5.50001 12.142 5.35001L12.87 4.93201C13.0227 4.84268 13.2013 4.81868 13.3753 4.86601C13.5473 4.91201 13.6913 5.02268 13.7793 5.17801C13.8687 5.33201 13.892 5.51134 13.8453 5.68334C13.7993 5.85534 13.6887 5.99934 13.5333 6.08734L12.8047 6.50668C12.5413 6.65868 12.414 6.96868 12.4947 7.26201ZM10.4713 7.08601C10.732 7.34668 10.732 7.76801 10.4713 8.02868C10.3413 8.15868 10.1707 8.22401 10 8.22401C9.82933 8.22401 9.65867 8.15868 9.52867 8.02868L8.66667 7.16668V11.1667C8.66667 11.5353 8.368 11.8333 8 11.8333C7.632 11.8333 7.33333 11.5353 7.33333 11.1667V7.16668L6.47133 8.02868C6.21067 8.28934 5.78933 8.28934 5.52867 8.02868C5.268 7.76801 5.268 7.34668 5.52867 7.08601L7.092 5.52268C7.57667 5.03668 8.42333 5.03668 8.90933 5.52268L10.472 7.08601H10.4713Z" fill="#656565"/>
</g>
<defs>
<clipPath id="clip0_3_69">
<rect width="16" height="16" fill="white" transform="translate(0 0.5)"/>
</clipPath>
</defs>
</svg>
