<svg width="16" height="17" viewBox="0 0 16 17" fill="none" xmlns="http://www.w3.org/2000/svg">
<g clip-path="url(#clip0_3_72)">
<path d="M5.98 7.38133C6.028 7.51267 5.98866 7.66067 5.88133 7.75067L5.09266 8.39333L5.41866 9.38667C5.46333 9.52133 5.41866 9.66933 5.30599 9.75533C5.19333 9.84133 5.03933 9.84733 4.92066 9.77067L4.00266 9.17267L3.1 9.77667C3.044 9.814 2.97933 9.83267 2.91466 9.83267C2.844 9.83267 2.774 9.81067 2.71466 9.766C2.60133 9.68133 2.554 9.534 2.59666 9.39933L2.90999 8.394L2.11733 7.74933C2.01066 7.65867 1.972 7.51133 2.01999 7.38067C2.068 7.24933 2.19333 7.162 2.33266 7.162H3.33266L3.68666 6.16867C3.73533 6.038 3.86 5.952 3.99933 5.952C4.13866 5.952 4.26333 6.03867 4.312 6.16867L4.666 7.162H5.666C5.80599 7.162 5.93133 7.24933 5.97933 7.38133H5.98ZM9.66666 7.162H8.66666L8.31266 6.16867C8.264 6.038 8.13933 5.952 8 5.952C7.86066 5.952 7.736 6.03867 7.68733 6.16867L7.33333 7.162H6.33333C6.19333 7.162 6.06866 7.24933 6.02066 7.38067C5.972 7.512 6.01133 7.65933 6.118 7.74933L6.91066 8.394L6.59733 9.39933C6.55533 9.534 6.60199 9.68133 6.71533 9.766C6.77466 9.81 6.84466 9.83267 6.91533 9.83267C6.98 9.83267 7.04466 9.814 7.10066 9.77667L8.00333 9.17267L8.92133 9.77067C9.04 9.84733 9.194 9.84133 9.30666 9.75533C9.41866 9.66867 9.46399 9.52067 9.41933 9.38667L9.09333 8.39333L9.882 7.75067C9.98933 7.66067 10.0287 7.51267 9.98066 7.38133C9.93266 7.25 9.80733 7.162 9.66733 7.162H9.66666ZM13.6667 7.162H12.6667L12.3127 6.16867C12.264 6.038 12.1393 5.952 12 5.952C11.8607 5.952 11.736 6.03867 11.6873 6.16867L11.3333 7.162H10.3333C10.1933 7.162 10.0687 7.24933 10.0207 7.38067C9.972 7.512 10.0113 7.65933 10.118 7.74933L10.9107 8.394L10.5973 9.39933C10.5553 9.534 10.602 9.68133 10.7153 9.766C10.7747 9.81 10.8447 9.83267 10.9153 9.83267C10.98 9.83267 11.0447 9.814 11.1007 9.77667L12.0033 9.17267L12.9213 9.77067C13.04 9.84733 13.194 9.84133 13.3067 9.75533C13.4187 9.66867 13.464 9.52067 13.4193 9.38667L13.0933 8.39333L13.882 7.75067C13.9893 7.66067 14.0287 7.51267 13.9807 7.38133C13.9327 7.25 13.8067 7.162 13.6667 7.162ZM16 5.166V10.4993C16 11.97 14.804 13.166 13.3333 13.166H11.432L8.86666 15.286C8.626 15.5007 8.31733 15.6087 8.00533 15.6087C7.688 15.6087 7.36866 15.4967 7.11399 15.2707L4.61466 13.166H2.666C1.19533 13.166 -0.000671387 11.97 -0.000671387 10.4993V5.16667C-4.72006e-06 3.696 1.196 2.5 2.66666 2.5H13.3333C14.804 2.5 16 3.69533 16 5.166ZM14.6667 5.166C14.6667 4.43067 14.0687 3.83267 13.3333 3.83267H2.66666C1.93133 3.83267 1.33333 4.43067 1.33333 5.166V10.4993C1.33333 11.2347 1.93133 11.8327 2.66666 11.8327H4.85866C5.01533 11.8327 5.16799 11.888 5.28866 11.9893L7.98733 14.2627L10.768 11.9853C10.8873 11.8867 11.0373 11.8327 11.1927 11.8327H13.334C14.0693 11.8327 14.6673 11.2347 14.6673 10.4993V5.16667L14.6667 5.166Z" fill="#656565"/>
</g>
<defs>
<clipPath id="clip0_3_72">
<rect width="16" height="16" fill="white" transform="translate(0 0.5)"/>
</clipPath>
</defs>
</svg>
