<svg width="16" height="17" viewBox="0 0 16 17" fill="none" xmlns="http://www.w3.org/2000/svg">
<g clip-path="url(#clip0_2_66)">
<path d="M8 10.5C7.632 10.5 7.33333 10.202 7.33333 9.83332V3.83332C7.33333 3.46466 7.632 3.16666 8 3.16666C8.368 3.16666 8.66666 3.46466 8.66666 3.83332V9.83332C8.66666 10.202 8.368 10.5 8 10.5ZM8 11.8333C7.448 11.8333 7 12.2813 7 12.8333C7 13.3853 7.448 13.8333 8 13.8333C8.552 13.8333 9 13.3853 9 12.8333C9 12.2813 8.552 11.8333 8 11.8333ZM16 13.1667V8.72666C16 4.40732 12.7307 0.802657 8.55733 0.518657C6.24266 0.36399 3.97333 1.21066 2.33933 2.84732C0.704664 4.48466 -0.140669 6.75199 0.0199975 9.06932C0.313331 13.3053 4.05466 16.5 8.72266 16.5H12.6673C14.5053 16.5 16 15.0047 16 13.1667ZM8.46733 1.84932C11.944 2.08532 14.6667 5.10599 14.6667 8.72599V13.166C14.6667 14.2687 13.7693 15.166 12.6667 15.166H8.722C4.69866 15.166 1.598 12.5633 1.34933 8.97666C1.21533 7.04399 1.91933 5.15332 3.282 3.78932C4.53666 2.53266 6.23866 1.83332 8.01 1.83332C8.162 1.83332 8.31466 1.83866 8.46666 1.84866L8.46733 1.84932Z" fill="#656565"/>
</g>
<defs>
<clipPath id="clip0_2_66">
<rect width="16" height="16" fill="white" transform="translate(0 0.5)"/>
</clipPath>
</defs>
</svg>
