<svg width="150" height="59" viewBox="0 0 150 59" fill="none" xmlns="http://www.w3.org/2000/svg">
<path d="M72.0921 46.7307C71.1337 46.7307 70.3878 46.5269 69.8544 46.1193C69.321 45.7116 69.0362 45.1228 69 44.3528H70.8309C70.8761 44.688 70.9936 44.9416 71.1835 45.1137C71.3733 45.2768 71.6717 45.3583 72.0785 45.3583C72.8199 45.3583 73.1906 45.1001 73.1906 44.5838C73.1906 44.3482 73.0821 44.1671 72.8651 44.0402C72.6481 43.9134 72.2775 43.8138 71.7531 43.7413C70.7947 43.5963 70.1166 43.3608 69.7188 43.0347C69.33 42.7086 69.1356 42.2058 69.1356 41.5264C69.1356 40.8198 69.4069 40.2763 69.9493 39.8958C70.5008 39.5062 71.1654 39.3115 71.9429 39.3115C73.7331 39.3115 74.7095 40.0452 74.8723 41.5128H73.0686C72.9601 40.9421 72.5894 40.6567 71.9565 40.6567C71.64 40.6567 71.3914 40.7247 71.2106 40.8606C71.0388 40.9964 70.9529 41.1731 70.9529 41.3905C70.9529 41.617 71.0478 41.7846 71.2377 41.8933C71.4366 42.002 71.7983 42.0926 72.3227 42.165C73.281 42.3009 73.9772 42.5274 74.4112 42.8445C74.8542 43.1615 75.0757 43.6779 75.0757 44.3935C75.0757 45.1545 74.8135 45.7343 74.2891 46.1328C73.7738 46.5314 73.0414 46.7307 72.0921 46.7307Z" fill="#030303"/>
<path d="M76.3228 46.5813V36.2541H78.2892V40.6024C78.4791 40.2219 78.7684 39.9139 79.1572 39.6784C79.555 39.4338 80.0342 39.3115 80.5948 39.3115C81.3271 39.3115 81.9057 39.5425 82.3307 40.0045C82.7647 40.4574 82.9817 41.1414 82.9817 42.0563V46.5813H81.0152V42.3417C81.0152 41.8525 80.9157 41.4947 80.7168 41.2682C80.5179 41.0327 80.2015 40.9149 79.7675 40.9149C79.3245 40.9149 78.9673 41.0508 78.6961 41.3226C78.4249 41.5853 78.2892 41.9703 78.2892 42.4776V46.5813H76.3228Z" fill="#030303"/>
<path d="M86.6872 44.6653C86.9946 45.0458 87.4241 45.236 87.9756 45.236C88.5271 45.236 88.9521 45.0458 89.2504 44.6653C89.5578 44.2848 89.7115 43.7549 89.7115 43.0755V42.9803C89.7115 42.3009 89.5578 41.771 89.2504 41.3905C88.9521 41.001 88.5271 40.8062 87.9756 40.8062C87.4331 40.8062 87.0082 40.9964 86.7008 41.3769C86.3934 41.7483 86.2397 42.2737 86.2397 42.9532V43.0619C86.2397 43.7413 86.3889 44.2758 86.6872 44.6653ZM87.962 46.7307C86.8861 46.7307 85.9956 46.4001 85.2904 45.7388C84.5851 45.0684 84.2325 44.1897 84.2325 43.1026V42.9939C84.2325 41.8978 84.5851 41.01 85.2904 40.3306C85.9956 39.6512 86.8907 39.3115 87.9756 39.3115C89.0606 39.3115 89.9511 39.6467 90.6473 40.317C91.3525 40.9783 91.7051 41.857 91.7051 42.9532V43.0619C91.7051 44.1671 91.3525 45.0548 90.6473 45.7252C89.9421 46.3956 89.047 46.7307 87.962 46.7307Z" fill="#030303"/>
<path d="M93.0235 49V39.4745H94.99V40.5888C95.1979 40.2264 95.5008 39.923 95.8986 39.6784C96.3055 39.4338 96.7575 39.3115 97.2548 39.3115C98.1589 39.3115 98.9003 39.6331 99.4789 40.2763C100.058 40.9194 100.347 41.8117 100.347 42.9532V43.0619C100.347 44.2033 100.058 45.1001 99.4789 45.7524C98.9003 46.4046 98.1589 46.7307 97.2548 46.7307C96.7304 46.7307 96.2693 46.6175 95.8715 46.391C95.4737 46.1555 95.1798 45.8566 94.99 45.4942V49H93.0235ZM96.6716 45.1952C97.2141 45.1952 97.63 45.0141 97.9193 44.6517C98.2086 44.2894 98.3533 43.7639 98.3533 43.0755V42.9668C98.3533 42.2692 98.1996 41.7393 97.8922 41.3769C97.5848 41.0055 97.1734 40.8198 96.6581 40.8198C96.1246 40.8198 95.6997 41.0055 95.3832 41.3769C95.0758 41.7393 94.9221 42.2692 94.9221 42.9668V43.0755C94.9221 43.773 95.0758 44.3029 95.3832 44.6653C95.6906 45.0186 96.1201 45.1952 96.6716 45.1952Z" fill="#030303"/>
<path d="M70.62 30.5223V14.3706H75.0893V16.8412C75.5208 16.0177 76.1681 15.3383 77.0311 14.803C77.8941 14.2677 78.8907 14 80.0209 14C82.2606 14 83.7607 14.9368 84.5209 16.8103C85.7744 14.9368 87.5826 14 89.9457 14C91.5279 14 92.8019 14.5147 93.7677 15.5441C94.754 16.5736 95.2472 18.1177 95.2472 20.1765V30.5223H90.8087V20.6707C90.8087 18.6736 89.9662 17.675 88.2813 17.675C87.3772 17.675 86.6271 17.9633 86.0312 18.5398C85.4559 19.1162 85.1682 19.9295 85.1682 20.9795V30.5223H80.7298V20.6707C80.7298 18.6736 79.8873 17.675 78.2023 17.675C77.2982 17.675 76.5482 17.9633 75.9523 18.5398C75.377 19.1162 75.0893 19.9295 75.0893 20.9795V30.5223H70.62Z" fill="#030303"/>
<path d="M105.722 30.862C103.236 30.862 101.212 30.1311 99.6502 28.6693C98.0885 27.1869 97.3077 25.1795 97.3077 22.6472V22.4001C97.3077 19.8883 98.0885 17.8603 99.6502 16.3162C101.232 14.7721 103.215 14 105.599 14C107.859 14 109.729 14.6897 111.209 16.0691C112.709 17.4486 113.459 19.4971 113.459 22.2148V23.4501H101.839C101.9 24.7884 102.28 25.8281 102.979 26.5693C103.678 27.3105 104.633 27.681 105.846 27.681C107.777 27.681 108.897 26.9296 109.205 25.4266H113.428C113.161 27.1766 112.359 28.5252 111.024 29.4722C109.688 30.3987 107.921 30.862 105.722 30.862ZM101.9 20.7015H109.113C108.969 18.2927 107.798 17.0883 105.599 17.0883C104.592 17.0883 103.76 17.4074 103.102 18.0456C102.465 18.6633 102.065 19.5486 101.9 20.7015Z" fill="#030303"/>
<path d="M122.764 36.4826C117.915 36.4826 115.244 34.6091 114.751 30.862H119.189C119.497 32.4267 120.689 33.2091 122.764 33.2091C125.477 33.2091 126.833 31.8914 126.833 29.2561V26.8163C126.36 27.6605 125.662 28.3708 124.737 28.9472C123.812 29.5237 122.785 29.812 121.655 29.812C119.641 29.812 117.966 29.1119 116.631 27.7119C115.295 26.3119 114.627 24.4384 114.627 22.0913V21.8751C114.627 19.5898 115.305 17.7059 116.662 16.2236C118.018 14.7412 119.703 14 121.716 14C124.079 14 125.785 14.9265 126.833 16.7794V14.3706H131.271V29.2561C131.251 31.6237 130.501 33.4149 129.021 34.6297C127.542 35.865 125.456 36.4826 122.764 36.4826ZM122.98 26.4457C124.172 26.4457 125.127 26.0546 125.847 25.2722C126.586 24.4692 126.956 23.3883 126.956 22.0295V21.8133C126.956 20.4339 126.607 19.353 125.908 18.5706C125.23 17.7883 124.285 17.3971 123.073 17.3971C121.84 17.3971 120.884 17.7986 120.206 18.6015C119.528 19.4045 119.189 20.4854 119.189 21.8442V22.0913C119.189 23.4089 119.538 24.4692 120.237 25.2722C120.936 26.0546 121.85 26.4457 122.98 26.4457Z" fill="#030303"/>
<path d="M138.784 30.862C137.202 30.862 135.907 30.4605 134.9 29.6575C133.894 28.8546 133.39 27.6502 133.39 26.0443C133.39 22.5854 136.185 20.856 141.774 20.856H143.592V20.2074C143.592 19.1986 143.397 18.4574 143.007 17.9839C142.616 17.4897 141.938 17.2427 140.972 17.2427C139.349 17.2427 138.435 18.0045 138.229 19.528H134.007C134.13 17.6956 134.849 16.3162 136.164 15.3897C137.479 14.4632 139.175 14 141.25 14C145.75 14 148 15.9971 148 19.9912V30.5223H143.654V28.5766C142.565 30.1002 140.942 30.862 138.784 30.862ZM140.109 27.7428C141.116 27.7428 141.949 27.4855 142.606 26.9707C143.264 26.456 143.592 25.756 143.592 24.8707V23.5119H141.866C140.51 23.5119 139.483 23.6869 138.784 24.0369C138.106 24.3869 137.767 24.9737 137.767 25.7972C137.767 27.0943 138.548 27.7428 140.109 27.7428Z" fill="#030303"/>
<path d="M106 43C106 40.2386 108.127 38 110.75 38H120.25C122.873 38 125 40.2386 125 43C125 45.7614 122.873 48 120.25 48H110.75C108.127 48 106 45.7614 106 43Z" fill="#EE2A7B"/>
<path d="M112.88 45.1475C112.389 45.1475 112.01 45.025 111.744 44.78C111.482 44.535 111.342 44.1947 111.323 43.7592H112.132C112.169 44.2219 112.407 44.4533 112.847 44.4533C113.287 44.4533 113.507 44.2531 113.507 43.8525C113.507 43.4519 113.294 43.2517 112.869 43.2517H112.559V42.6217H112.847C113.25 42.6217 113.451 42.4369 113.451 42.0675C113.451 41.9119 113.403 41.7875 113.307 41.6942C113.215 41.5969 113.08 41.5483 112.903 41.5483C112.718 41.5483 112.568 41.6047 112.454 41.7175C112.339 41.8264 112.271 41.98 112.249 42.1783H111.456C111.478 41.7856 111.617 41.4667 111.872 41.2217C112.13 40.9767 112.48 40.8542 112.919 40.8542C113.344 40.8542 113.68 40.9592 113.928 41.1692C114.175 41.3792 114.299 41.6514 114.299 41.9858C114.299 42.4253 114.081 42.7267 113.645 42.89C113.882 42.9444 114.068 43.0572 114.205 43.2283C114.345 43.3956 114.415 43.6094 114.415 43.87C114.415 44.2628 114.279 44.5739 114.005 44.8033C113.736 45.0328 113.361 45.1475 112.88 45.1475Z" fill="white"/>
<path d="M115.364 45.1358C115.228 45.1358 115.111 45.0872 115.015 44.99C114.919 44.8889 114.871 44.7664 114.871 44.6225C114.871 44.4825 114.919 44.3639 115.015 44.2667C115.111 44.1656 115.228 44.115 115.364 44.115C115.505 44.115 115.623 44.1656 115.719 44.2667C115.815 44.3639 115.863 44.4825 115.863 44.6225C115.863 44.7664 115.815 44.8889 115.719 44.99C115.623 45.0872 115.505 45.1358 115.364 45.1358Z" fill="white"/>
<path d="M117.898 44.4067C118.441 44.4067 118.712 43.9653 118.712 43.0825V42.8958C118.712 42.4719 118.642 42.1472 118.502 41.9217C118.365 41.6961 118.16 41.5833 117.887 41.5833C117.329 41.5833 117.05 42.0208 117.05 42.8958V43.0942C117.05 43.9692 117.333 44.4067 117.898 44.4067ZM117.876 45.1475C117.347 45.1475 116.928 44.9647 116.618 44.5992C116.307 44.2336 116.152 43.7339 116.152 43.1V42.9017C116.152 42.2678 116.311 41.7681 116.629 41.4025C116.946 41.0369 117.364 40.8542 117.881 40.8542C118.402 40.8542 118.82 41.0331 119.134 41.3908C119.448 41.7486 119.605 42.2464 119.605 42.8842V43.0767C119.605 43.7144 119.449 44.22 119.139 44.5933C118.832 44.9628 118.411 45.1475 117.876 45.1475Z" fill="white"/>
<path d="M0 18.4375C0 8.25475 8.25475 0 18.4375 0H40.5625C50.7452 0 59 8.25475 59 18.4375V40.5625C59 50.7452 50.7452 59 40.5625 59H18.4375C8.25475 59 0 50.7452 0 40.5625V18.4375Z" fill="#2D9CDB"/>
<path d="M0 18.4375C0 8.25475 8.25475 0 18.4375 0H40.5625C50.7452 0 59 8.25475 59 18.4375V40.5625C59 50.7452 50.7452 59 40.5625 59H18.4375C8.25475 59 0 50.7452 0 40.5625V18.4375Z" fill="#2D9CDB"/>
<rect x="12" y="14" width="36" height="22" rx="2" fill="white"/>
<rect x="16" y="17" width="28" height="15" rx="2" fill="#2D9CDB"/>
<rect x="12" y="38" width="36" height="7" rx="2" fill="white"/>
<circle cx="43" cy="42" r="1" fill="#2D9CDB"/>
</svg>
