<svg width="235" height="59" viewBox="0 0 235 59" fill="none" xmlns="http://www.w3.org/2000/svg">
<g clip-path="url(#clip0_580_8467)">
<path d="M72.0921 46.7307C71.1337 46.7307 70.3878 46.5269 69.8544 46.1193C69.321 45.7116 69.0362 45.1228 69 44.3528H70.8309C70.8761 44.688 70.9936 44.9416 71.1835 45.1137C71.3733 45.2768 71.6717 45.3583 72.0785 45.3583C72.8199 45.3583 73.1906 45.1001 73.1906 44.5838C73.1906 44.3482 73.0821 44.1671 72.8651 44.0402C72.6481 43.9134 72.2775 43.8138 71.7531 43.7413C70.7947 43.5963 70.1166 43.3608 69.7188 43.0347C69.33 42.7086 69.1356 42.2058 69.1356 41.5264C69.1356 40.8198 69.4069 40.2763 69.9493 39.8958C70.5008 39.5062 71.1654 39.3115 71.9429 39.3115C73.7331 39.3115 74.7095 40.0452 74.8723 41.5128H73.0686C72.9601 40.9421 72.5894 40.6567 71.9565 40.6567C71.64 40.6567 71.3914 40.7247 71.2106 40.8606C71.0388 40.9964 70.9529 41.1731 70.9529 41.3905C70.9529 41.617 71.0478 41.7846 71.2377 41.8933C71.4366 42.002 71.7983 42.0926 72.3227 42.165C73.281 42.3009 73.9772 42.5274 74.4112 42.8445C74.8542 43.1615 75.0757 43.6779 75.0757 44.3935C75.0757 45.1545 74.8135 45.7343 74.2891 46.1328C73.7738 46.5314 73.0414 46.7307 72.0921 46.7307Z" fill="#030303"/>
<path d="M76.3228 46.5813V36.2541H78.2892V40.6024C78.4791 40.2219 78.7684 39.9139 79.1572 39.6784C79.555 39.4338 80.0342 39.3115 80.5948 39.3115C81.3271 39.3115 81.9057 39.5425 82.3307 40.0045C82.7647 40.4574 82.9817 41.1414 82.9817 42.0563V46.5813H81.0152V42.3417C81.0152 41.8525 80.9157 41.4947 80.7168 41.2682C80.5179 41.0327 80.2015 40.9149 79.7675 40.9149C79.3245 40.9149 78.9673 41.0508 78.6961 41.3226C78.4249 41.5853 78.2892 41.9703 78.2892 42.4776V46.5813H76.3228Z" fill="#030303"/>
<path d="M86.6872 44.6653C86.9946 45.0458 87.4241 45.236 87.9756 45.236C88.5271 45.236 88.9521 45.0458 89.2504 44.6653C89.5578 44.2848 89.7115 43.7549 89.7115 43.0755V42.9803C89.7115 42.3009 89.5578 41.771 89.2504 41.3905C88.9521 41.001 88.5271 40.8062 87.9756 40.8062C87.4331 40.8062 87.0082 40.9964 86.7008 41.3769C86.3934 41.7483 86.2397 42.2737 86.2397 42.9532V43.0619C86.2397 43.7413 86.3889 44.2758 86.6872 44.6653ZM87.962 46.7307C86.8861 46.7307 85.9956 46.4001 85.2904 45.7388C84.5851 45.0684 84.2325 44.1897 84.2325 43.1026V42.9939C84.2325 41.8978 84.5851 41.01 85.2904 40.3306C85.9956 39.6512 86.8907 39.3115 87.9756 39.3115C89.0606 39.3115 89.9511 39.6467 90.6473 40.317C91.3525 40.9783 91.7051 41.857 91.7051 42.9532V43.0619C91.7051 44.1671 91.3525 45.0548 90.6473 45.7252C89.9421 46.3956 89.047 46.7307 87.962 46.7307Z" fill="#030303"/>
<path d="M93.0235 49V39.4745H94.99V40.5888C95.1979 40.2264 95.5008 39.923 95.8986 39.6784C96.3055 39.4338 96.7575 39.3115 97.2548 39.3115C98.1589 39.3115 98.9003 39.6331 99.4789 40.2763C100.058 40.9194 100.347 41.8117 100.347 42.9532V43.0619C100.347 44.2033 100.058 45.1001 99.4789 45.7524C98.9003 46.4046 98.1589 46.7307 97.2548 46.7307C96.7304 46.7307 96.2693 46.6175 95.8715 46.391C95.4737 46.1555 95.1798 45.8566 94.99 45.4942V49H93.0235ZM96.6716 45.1952C97.2141 45.1952 97.63 45.0141 97.9193 44.6517C98.2086 44.2894 98.3533 43.7639 98.3533 43.0755V42.9668C98.3533 42.2692 98.1996 41.7393 97.8922 41.3769C97.5848 41.0055 97.1734 40.8198 96.6581 40.8198C96.1246 40.8198 95.6997 41.0055 95.3832 41.3769C95.0758 41.7393 94.9221 42.2692 94.9221 42.9668V43.0755C94.9221 43.773 95.0758 44.3029 95.3832 44.6653C95.6906 45.0186 96.1201 45.1952 96.6716 45.1952Z" fill="#030303"/>
<path d="M70.62 30.5223V14.3706H75.0893V16.8412C75.5208 16.0177 76.1681 15.3383 77.0311 14.803C77.8941 14.2677 78.8907 14 80.0209 14C82.2606 14 83.7607 14.9368 84.5209 16.8103C85.7744 14.9368 87.5826 14 89.9457 14C91.5279 14 92.8019 14.5147 93.7677 15.5441C94.754 16.5736 95.2472 18.1177 95.2472 20.1765V30.5223H90.8087V20.6707C90.8087 18.6736 89.9662 17.675 88.2813 17.675C87.3772 17.675 86.6271 17.9633 86.0312 18.5398C85.4559 19.1162 85.1682 19.9295 85.1682 20.9795V30.5223H80.7298V20.6707C80.7298 18.6736 79.8873 17.675 78.2023 17.675C77.2982 17.675 76.5482 17.9633 75.9523 18.5398C75.377 19.1162 75.0893 19.9295 75.0893 20.9795V30.5223H70.62Z" fill="#030303"/>
<path d="M105.722 30.862C103.236 30.862 101.212 30.1311 99.6502 28.6693C98.0885 27.1869 97.3077 25.1795 97.3077 22.6472V22.4001C97.3077 19.8883 98.0885 17.8603 99.6502 16.3162C101.232 14.7721 103.215 14 105.599 14C107.859 14 109.729 14.6897 111.209 16.0691C112.709 17.4486 113.459 19.4971 113.459 22.2148V23.4501H101.839C101.9 24.7884 102.28 25.8281 102.979 26.5693C103.678 27.3105 104.633 27.681 105.846 27.681C107.777 27.681 108.897 26.9296 109.205 25.4266H113.428C113.161 27.1766 112.359 28.5252 111.024 29.4722C109.688 30.3987 107.921 30.862 105.722 30.862ZM101.9 20.7015H109.113C108.969 18.2927 107.798 17.0883 105.599 17.0883C104.592 17.0883 103.76 17.4074 103.102 18.0456C102.465 18.6633 102.065 19.5486 101.9 20.7015Z" fill="#030303"/>
<path d="M122.764 36.4826C117.915 36.4826 115.244 34.6091 114.751 30.862H119.189C119.497 32.4267 120.689 33.2091 122.764 33.2091C125.477 33.2091 126.833 31.8914 126.833 29.2561V26.8163C126.36 27.6605 125.662 28.3708 124.737 28.9472C123.812 29.5237 122.785 29.812 121.655 29.812C119.641 29.812 117.966 29.1119 116.631 27.7119C115.295 26.3119 114.627 24.4384 114.627 22.0913V21.8751C114.627 19.5898 115.305 17.7059 116.662 16.2236C118.018 14.7412 119.703 14 121.716 14C124.079 14 125.785 14.9265 126.833 16.7794V14.3706H131.271V29.2561C131.251 31.6237 130.501 33.4149 129.021 34.6297C127.542 35.865 125.456 36.4826 122.764 36.4826ZM122.98 26.4457C124.172 26.4457 125.127 26.0546 125.847 25.2722C126.586 24.4692 126.956 23.3883 126.956 22.0295V21.8133C126.956 20.4339 126.607 19.353 125.908 18.5706C125.23 17.7883 124.285 17.3971 123.073 17.3971C121.84 17.3971 120.884 17.7986 120.206 18.6015C119.528 19.4045 119.189 20.4854 119.189 21.8442V22.0913C119.189 23.4089 119.538 24.4692 120.237 25.2722C120.936 26.0546 121.85 26.4457 122.98 26.4457Z" fill="#030303"/>
<path d="M138.784 30.862C137.202 30.862 135.907 30.4605 134.9 29.6575C133.894 28.8546 133.39 27.6502 133.39 26.0443C133.39 22.5854 136.185 20.856 141.774 20.856H143.592V20.2074C143.592 19.1986 143.397 18.4574 143.007 17.9839C142.616 17.4897 141.938 17.2427 140.972 17.2427C139.349 17.2427 138.435 18.0045 138.229 19.528H134.007C134.13 17.6956 134.849 16.3162 136.164 15.3897C137.479 14.4632 139.175 14 141.25 14C145.75 14 148 15.9971 148 19.9912V30.5223H143.654V28.5766C142.565 30.1002 140.942 30.862 138.784 30.862ZM140.109 27.7428C141.116 27.7428 141.949 27.4855 142.606 26.9707C143.264 26.456 143.592 25.756 143.592 24.8707V23.5119H141.866C140.51 23.5119 139.483 23.6869 138.784 24.0369C138.106 24.3869 137.767 24.9737 137.767 25.7972C137.767 27.0943 138.548 27.7428 140.109 27.7428Z" fill="#030303"/>
<path d="M106 43C106 40.2386 108.127 38 110.75 38H120.25C122.873 38 125 40.2386 125 43C125 45.7614 122.873 48 120.25 48H110.75C108.127 48 106 45.7614 106 43Z" fill="#EE2A7B"/>
<path d="M112.88 45.1475C112.389 45.1475 112.01 45.025 111.744 44.78C111.482 44.535 111.342 44.1947 111.323 43.7592H112.132C112.169 44.2219 112.407 44.4533 112.847 44.4533C113.287 44.4533 113.507 44.2531 113.507 43.8525C113.507 43.4519 113.294 43.2517 112.869 43.2517H112.559V42.6217H112.847C113.25 42.6217 113.451 42.4369 113.451 42.0675C113.451 41.9119 113.403 41.7875 113.307 41.6942C113.215 41.5969 113.08 41.5483 112.903 41.5483C112.718 41.5483 112.568 41.6047 112.454 41.7175C112.339 41.8264 112.271 41.98 112.249 42.1783H111.456C111.478 41.7856 111.617 41.4667 111.872 41.2217C112.13 40.9767 112.48 40.8542 112.919 40.8542C113.344 40.8542 113.68 40.9592 113.928 41.1692C114.175 41.3792 114.299 41.6514 114.299 41.9858C114.299 42.4253 114.081 42.7267 113.645 42.89C113.882 42.9444 114.068 43.0572 114.205 43.2283C114.345 43.3956 114.415 43.6094 114.415 43.87C114.415 44.2628 114.279 44.5739 114.005 44.8033C113.736 45.0328 113.361 45.1475 112.88 45.1475Z" fill="white"/>
<path d="M115.364 45.1358C115.228 45.1358 115.111 45.0872 115.015 44.99C114.919 44.8889 114.871 44.7664 114.871 44.6225C114.871 44.4825 114.919 44.3639 115.015 44.2667C115.111 44.1656 115.228 44.115 115.364 44.115C115.505 44.115 115.623 44.1656 115.719 44.2667C115.815 44.3639 115.863 44.4825 115.863 44.6225C115.863 44.7664 115.815 44.8889 115.719 44.99C115.623 45.0872 115.505 45.1358 115.364 45.1358Z" fill="white"/>
<path d="M117.898 44.4067C118.441 44.4067 118.712 43.9653 118.712 43.0825V42.8958C118.712 42.4719 118.642 42.1472 118.502 41.9217C118.365 41.6961 118.16 41.5833 117.887 41.5833C117.329 41.5833 117.05 42.0208 117.05 42.8958V43.0942C117.05 43.9692 117.333 44.4067 117.898 44.4067ZM117.876 45.1475C117.347 45.1475 116.928 44.9647 116.618 44.5992C116.307 44.2336 116.152 43.7339 116.152 43.1V42.9017C116.152 42.2678 116.311 41.7681 116.629 41.4025C116.946 41.0369 117.364 40.8542 117.881 40.8542C118.402 40.8542 118.82 41.0331 119.134 41.3908C119.448 41.7486 119.605 42.2464 119.605 42.8842V43.0767C119.605 43.7144 119.449 44.22 119.139 44.5933C118.832 44.9628 118.411 45.1475 117.876 45.1475Z" fill="white"/>
<path d="M0 18.4375C0 8.25475 8.25475 0 18.4375 0H40.5625C50.7452 0 59 8.25475 59 18.4375V40.5625C59 50.7452 50.7452 59 40.5625 59H18.4375C8.25475 59 0 50.7452 0 40.5625V18.4375Z" fill="#2D9CDB"/>
<path d="M0 18.4375C0 8.25475 8.25475 0 18.4375 0H40.5625C50.7452 0 59 8.25475 59 18.4375V40.5625C59 50.7452 50.7452 59 40.5625 59H18.4375C8.25475 59 0 50.7452 0 40.5625V18.4375Z" fill="#2D9CDB"/>
<rect x="12" y="14" width="36" height="22" rx="2" fill="white"/>
<rect x="16" y="17" width="28" height="15" rx="2" fill="#2D9CDB"/>
<rect x="12" y="38" width="36" height="7" rx="2" fill="white"/>
<circle cx="43" cy="42" r="1" fill="#2D9CDB"/>
<path d="M161.04 4.07974C163.611 4.07974 164.825 4.84122 166.229 5.72294C167.533 6.54184 168.993 7.4566 171.535 7.64778V13.4385C171.535 14.0126 172 14.4784 172.575 14.4784C173.149 14.4784 173.615 14.0126 173.615 13.4385V7.6402C176.095 7.43331 177.533 6.53101 178.819 5.72294C180.224 4.84122 181.437 4.07974 184.009 4.07974C186.581 4.07974 187.794 4.84122 189.198 5.72294C190.494 6.53642 191.943 7.44522 194.454 7.64399V13.4385C194.454 14.0126 194.92 14.4784 195.494 14.4784C196.069 14.4784 196.534 14.0126 196.534 13.4385V7.64399C199.044 7.44468 200.493 6.53588 201.789 5.72294C203.193 4.84122 204.406 4.07974 206.978 4.07974C209.55 4.07974 210.763 4.84122 212.168 5.72294C213.483 6.54888 214.956 7.47284 217.539 7.65265V13.4385C217.539 14.0126 218.005 14.4784 218.579 14.4784C219.154 14.4784 219.619 14.0126 219.619 13.4385V7.63478C222.059 7.41706 223.483 6.52342 224.759 5.72294C226.163 4.84122 227.376 4.07974 229.948 4.07974C230.523 4.07974 230.988 3.61396 230.988 3.03987C230.988 2.46577 230.523 2 229.948 2C226.778 2 225.117 3.04203 223.653 3.96167C222.249 4.84339 221.035 5.60487 218.463 5.60487C215.891 5.60487 214.678 4.84339 213.273 3.96167C211.809 3.04203 210.149 2 206.978 2C203.808 2 202.147 3.04203 200.683 3.96167C199.278 4.84339 198.065 5.60487 195.493 5.60487C192.922 5.60487 191.708 4.84339 190.304 3.96167C188.84 3.04203 187.179 2 184.009 2C180.839 2 179.179 3.04203 177.714 3.96167C176.309 4.84339 175.096 5.60487 172.524 5.60487C169.952 5.60487 168.739 4.84339 167.335 3.96167C165.87 3.04203 164.21 2 161.04 2C160.465 2 160 2.46577 160 3.03987C160 3.61396 160.465 4.07974 161.04 4.07974Z" fill="#50475E"/>
<path d="M197.851 17.8751H193.137V12.1905C193.137 10.8885 194.192 9.8335 195.494 9.8335C196.796 9.8335 197.851 10.8885 197.851 12.1905V17.8751Z" fill="#EBE4E2"/>
<path d="M197.851 18.7071H193.137V15.7955C193.137 14.4935 194.192 13.4385 195.494 13.4385C196.796 13.4385 197.851 14.4935 197.851 15.7955V18.7071Z" fill="#685C79"/>
<path d="M199.653 21.6927C199.653 25.4449 197.791 31.4631 195.493 31.4631C193.196 31.4631 191.334 25.4449 191.334 21.6927C191.334 17.941 193.196 17.8755 195.493 17.8755C197.791 17.8755 199.653 17.941 199.653 21.6927Z" fill="#FFD659"/>
<path d="M195.494 17.8755C194.736 17.8755 194.026 17.8836 193.414 18.0277C194.657 18.3207 195.494 19.1786 195.494 21.6927C195.494 24.2078 194.658 27.7396 193.414 29.7961C194.026 30.8083 194.736 31.4631 195.494 31.4631C197.791 31.4631 199.653 25.4449 199.653 21.6927C199.653 17.941 197.791 17.8755 195.494 17.8755Z" fill="#FFBD54"/>
<path d="M220.937 17.8751H216.223V12.1905C216.223 10.8885 217.278 9.8335 218.58 9.8335C219.882 9.8335 220.937 10.8885 220.937 12.1905V17.8751Z" fill="#EBE4E2"/>
<path d="M220.937 18.7071H216.223V15.7955C216.223 14.4935 217.278 13.4385 218.58 13.4385C219.882 13.4385 220.937 14.4935 220.937 15.7955V18.7071Z" fill="#685C79"/>
<path d="M222.737 21.6927C222.737 25.4449 220.875 31.4631 218.577 31.4631C216.28 31.4631 214.418 25.4449 214.418 21.6927C214.418 17.941 216.28 17.8755 218.577 17.8755C220.875 17.8755 222.737 17.941 222.737 21.6927Z" fill="#FF2C5C"/>
<path d="M218.58 17.8755C217.822 17.8755 217.112 17.8836 216.5 18.0277C217.743 18.3207 218.58 19.1786 218.58 21.6927C218.58 24.2078 217.744 27.7396 216.5 29.7961C217.112 30.8083 217.822 31.4631 218.58 31.4631C220.877 31.4631 222.739 25.4449 222.739 21.6927C222.739 17.941 220.877 17.8755 218.58 17.8755Z" fill="#E62753"/>
<path d="M174.931 17.8751H170.217V12.1905C170.217 10.8885 171.272 9.8335 172.574 9.8335C173.875 9.8335 174.931 10.8885 174.931 12.1905V17.8751Z" fill="#EBE4E2"/>
<path d="M174.931 18.7071H170.217V15.7955C170.217 14.4935 171.272 13.4385 172.574 13.4385C173.875 13.4385 174.931 14.4935 174.931 15.7955V18.7071Z" fill="#685C79"/>
<path d="M176.733 21.6927C176.733 25.4449 174.87 31.4631 172.574 31.4631C170.276 31.4631 168.414 25.4449 168.414 21.6927C168.414 17.941 170.276 17.8755 172.574 17.8755C174.87 17.8755 176.733 17.941 176.733 21.6927Z" fill="#51C4F5"/>
<path d="M172.574 17.8755C171.816 17.8755 171.106 17.8836 170.494 18.0277C171.737 18.3207 172.574 19.1786 172.574 21.6927C172.574 24.2078 171.737 27.7396 170.494 29.7961C171.106 30.8083 171.816 31.4631 172.574 31.4631C174.871 31.4631 176.733 25.4449 176.733 21.6927C176.733 17.941 174.871 17.8755 172.574 17.8755Z" fill="#2BADE3"/>
<path d="M195.495 34.3936C194.92 34.3936 194.455 34.8593 194.455 35.4334V36.5237C194.455 37.0978 194.92 37.5635 195.495 37.5635C196.07 37.5635 196.535 37.0978 196.535 36.5237V35.4334C196.535 34.8593 196.07 34.3936 195.495 34.3936Z" fill="#FFD659"/>
<path d="M189.417 35.0455C189.683 35.0455 189.949 34.9442 190.152 34.7411L190.923 33.9704C191.329 33.5642 191.329 32.9056 190.923 32.5C190.517 32.0938 189.858 32.0938 189.453 32.5L188.682 33.2707C188.275 33.6769 188.275 34.3349 188.682 34.7411C188.885 34.9442 189.151 35.0455 189.417 35.0455Z" fill="#FFD659"/>
<path d="M189.029 27.9271C189.029 27.353 188.564 26.8872 187.989 26.8872H186.899C186.325 26.8872 185.859 27.353 185.859 27.9271C185.859 28.5012 186.325 28.9669 186.899 28.9669H187.989C188.564 28.9669 189.029 28.5012 189.029 27.9271Z" fill="#FFD659"/>
<path d="M204.09 26.8872H203.001C202.426 26.8872 201.961 27.353 201.961 27.9271C201.961 28.5012 202.426 28.9669 203.001 28.9669H204.09C204.665 28.9669 205.13 28.5012 205.13 27.9271C205.13 27.353 204.665 26.8872 204.09 26.8872Z" fill="#FFD659"/>
<path d="M200.837 34.7407C201.04 34.9438 201.306 35.0451 201.572 35.0451C201.839 35.0451 202.104 34.9438 202.308 34.7407C202.714 34.3345 202.714 33.676 202.308 33.2698L201.537 32.4991C201.131 32.0934 200.472 32.0934 200.066 32.4991C199.66 32.9053 199.66 33.5638 200.066 33.97L200.837 34.7407Z" fill="#FFD659"/>
<path d="M218.579 34.3936C218.004 34.3936 217.539 34.8593 217.539 35.4334V36.5237C217.539 37.0978 218.004 37.5635 218.579 37.5635C219.154 37.5635 219.619 37.0978 219.619 36.5237V35.4334C219.619 34.8593 219.154 34.3936 218.579 34.3936Z" fill="#FF2C5C"/>
<path d="M211.766 34.7416C211.969 34.9447 212.235 35.046 212.501 35.046C212.767 35.046 213.033 34.9447 213.236 34.7416L214.007 33.9709C214.413 33.5647 214.413 32.9061 214.007 32.5004C213.601 32.0943 212.942 32.0943 212.537 32.5004L211.766 33.2711C211.359 33.6768 211.359 34.3354 211.766 34.7416Z" fill="#FF2C5C"/>
<path d="M212.113 27.9276C212.113 27.3535 211.648 26.8877 211.073 26.8877H209.983C209.409 26.8877 208.943 27.3535 208.943 27.9276C208.943 28.5017 209.409 28.9674 209.983 28.9674H211.073C211.648 28.9674 212.113 28.5017 212.113 27.9276Z" fill="#FF2C5C"/>
<path d="M227.174 26.8877H226.085C225.51 26.8877 225.045 27.3535 225.045 27.9276C225.045 28.5017 225.51 28.9674 226.085 28.9674H227.174C227.749 28.9674 228.214 28.5017 228.214 27.9276C228.214 27.3535 227.749 26.8877 227.174 26.8877Z" fill="#FF2C5C"/>
<path d="M224.621 32.4996C224.215 32.0939 223.556 32.0939 223.15 32.4996C222.744 32.9058 222.744 33.5643 223.15 33.9705L223.921 34.7412C224.124 34.9443 224.39 35.0456 224.657 35.0456C224.923 35.0456 225.188 34.9443 225.392 34.7412C225.798 34.335 225.798 33.6764 225.392 33.2702L224.621 32.4996Z" fill="#FF2C5C"/>
<path d="M172.575 34.3936C172 34.3936 171.535 34.8593 171.535 35.4334V36.5237C171.535 37.0978 172 37.5635 172.575 37.5635C173.149 37.5635 173.615 37.0978 173.615 36.5237V35.4334C173.615 34.8593 173.149 34.3936 172.575 34.3936Z" fill="#51C4F5"/>
<path d="M166.532 32.5L165.762 33.2707C165.355 33.6769 165.355 34.3355 165.762 34.7416C165.965 34.9447 166.231 35.046 166.497 35.046C166.763 35.046 167.029 34.9447 167.232 34.7416L168.003 33.971C168.409 33.5648 168.409 32.9062 168.003 32.5005C167.597 32.0943 166.939 32.0943 166.532 32.5Z" fill="#51C4F5"/>
<path d="M166.109 27.9276C166.109 27.3535 165.644 26.8877 165.069 26.8877H163.979C163.405 26.8877 162.939 27.3535 162.939 27.9276C162.939 28.5017 163.405 28.9674 163.979 28.9674H165.069C165.644 28.9674 166.109 28.5017 166.109 27.9276Z" fill="#51C4F5"/>
<path d="M181.171 26.8877H180.081C179.507 26.8877 179.041 27.3535 179.041 27.9276C179.041 28.5017 179.507 28.9674 180.081 28.9674H181.171C181.745 28.9674 182.211 28.5017 182.211 27.9276C182.211 27.3535 181.745 26.8877 181.171 26.8877Z" fill="#51C4F5"/>
<path d="M177.917 34.7412C178.12 34.9443 178.386 35.0456 178.653 35.0456C178.919 35.0456 179.185 34.9443 179.388 34.7412C179.794 34.335 179.794 33.6764 179.388 33.2702L178.617 32.4996C178.211 32.0939 177.553 32.0939 177.146 32.4996C176.74 32.9058 176.74 33.5643 177.146 33.9705L177.917 34.7412Z" fill="#51C4F5"/>
<path d="M135.134 44.1196L129 52H148L142.165 44.1196H147.402L140.969 35.8086H146.354L138.5 27L130.197 35.5118H135.732L129 44.1196H135.134Z" fill="#44C4A1"/>
</g>
<defs>
<clipPath id="clip0_580_8467">
<rect width="235" height="59" fill="white"/>
</clipPath>
</defs>
</svg>
