<svg width="235" height="59" viewBox="0 0 235 59" fill="none" xmlns="http://www.w3.org/2000/svg">
    <g clip-path="url(#clip0_580_8451)">
        <path d="M72.0921 46.7307C71.1337 46.7307 70.3878 46.5269 69.8544 46.1193C69.321 45.7116 69.0362 45.1228 69 44.3528H70.8309C70.8761 44.688 70.9936 44.9416 71.1835 45.1137C71.3733 45.2768 71.6717 45.3583 72.0785 45.3583C72.8199 45.3583 73.1906 45.1001 73.1906 44.5838C73.1906 44.3482 73.0821 44.1671 72.8651 44.0402C72.6481 43.9134 72.2775 43.8138 71.7531 43.7413C70.7947 43.5963 70.1166 43.3608 69.7188 43.0347C69.33 42.7086 69.1356 42.2058 69.1356 41.5264C69.1356 40.8198 69.4069 40.2763 69.9493 39.8958C70.5008 39.5062 71.1654 39.3115 71.9429 39.3115C73.7331 39.3115 74.7095 40.0452 74.8723 41.5128H73.0686C72.9601 40.9421 72.5894 40.6567 71.9565 40.6567C71.64 40.6567 71.3914 40.7247 71.2106 40.8606C71.0388 40.9964 70.9529 41.1731 70.9529 41.3905C70.9529 41.617 71.0478 41.7846 71.2377 41.8933C71.4366 42.002 71.7983 42.0926 72.3227 42.165C73.281 42.3009 73.9772 42.5274 74.4112 42.8445C74.8542 43.1615 75.0757 43.6779 75.0757 44.3935C75.0757 45.1545 74.8135 45.7343 74.2891 46.1328C73.7738 46.5314 73.0414 46.7307 72.0921 46.7307Z" fill="#030303"/>
        <path d="M76.3228 46.5813V36.2541H78.2892V40.6024C78.4791 40.2219 78.7684 39.9139 79.1572 39.6784C79.555 39.4338 80.0342 39.3115 80.5948 39.3115C81.3271 39.3115 81.9057 39.5425 82.3307 40.0045C82.7647 40.4574 82.9817 41.1414 82.9817 42.0563V46.5813H81.0152V42.3417C81.0152 41.8525 80.9157 41.4947 80.7168 41.2682C80.5179 41.0327 80.2015 40.9149 79.7675 40.9149C79.3245 40.9149 78.9673 41.0508 78.6961 41.3226C78.4249 41.5853 78.2892 41.9703 78.2892 42.4776V46.5813H76.3228Z" fill="#030303"/>
        <path d="M86.6872 44.6653C86.9946 45.0458 87.4241 45.236 87.9756 45.236C88.5271 45.236 88.9521 45.0458 89.2504 44.6653C89.5578 44.2848 89.7115 43.7549 89.7115 43.0755V42.9803C89.7115 42.3009 89.5578 41.771 89.2504 41.3905C88.9521 41.001 88.5271 40.8062 87.9756 40.8062C87.4331 40.8062 87.0082 40.9964 86.7008 41.3769C86.3934 41.7483 86.2397 42.2737 86.2397 42.9532V43.0619C86.2397 43.7413 86.3889 44.2758 86.6872 44.6653ZM87.962 46.7307C86.8861 46.7307 85.9956 46.4001 85.2904 45.7388C84.5851 45.0684 84.2325 44.1897 84.2325 43.1026V42.9939C84.2325 41.8978 84.5851 41.01 85.2904 40.3306C85.9956 39.6512 86.8907 39.3115 87.9756 39.3115C89.0606 39.3115 89.9511 39.6467 90.6473 40.317C91.3525 40.9783 91.7051 41.857 91.7051 42.9532V43.0619C91.7051 44.1671 91.3525 45.0548 90.6473 45.7252C89.9421 46.3956 89.047 46.7307 87.962 46.7307Z" fill="#030303"/>
        <path d="M93.0235 49V39.4745H94.99V40.5888C95.1979 40.2264 95.5008 39.923 95.8986 39.6784C96.3055 39.4338 96.7575 39.3115 97.2548 39.3115C98.1589 39.3115 98.9003 39.6331 99.4789 40.2763C100.058 40.9194 100.347 41.8117 100.347 42.9532V43.0619C100.347 44.2033 100.058 45.1001 99.4789 45.7524C98.9003 46.4046 98.1589 46.7307 97.2548 46.7307C96.7304 46.7307 96.2693 46.6175 95.8715 46.391C95.4737 46.1555 95.1798 45.8566 94.99 45.4942V49H93.0235ZM96.6716 45.1952C97.2141 45.1952 97.63 45.0141 97.9193 44.6517C98.2086 44.2894 98.3533 43.7639 98.3533 43.0755V42.9668C98.3533 42.2692 98.1996 41.7393 97.8922 41.3769C97.5848 41.0055 97.1734 40.8198 96.6581 40.8198C96.1246 40.8198 95.6997 41.0055 95.3832 41.3769C95.0758 41.7393 94.9221 42.2692 94.9221 42.9668V43.0755C94.9221 43.773 95.0758 44.3029 95.3832 44.6653C95.6906 45.0186 96.1201 45.1952 96.6716 45.1952Z" fill="#030303"/>
        <path d="M70.62 30.5223V14.3706H75.0893V16.8412C75.5208 16.0177 76.1681 15.3383 77.0311 14.803C77.8941 14.2677 78.8907 14 80.0209 14C82.2606 14 83.7607 14.9368 84.5209 16.8103C85.7744 14.9368 87.5826 14 89.9457 14C91.5279 14 92.8019 14.5147 93.7677 15.5441C94.754 16.5736 95.2472 18.1177 95.2472 20.1765V30.5223H90.8087V20.6707C90.8087 18.6736 89.9662 17.675 88.2813 17.675C87.3772 17.675 86.6271 17.9633 86.0312 18.5398C85.4559 19.1162 85.1682 19.9295 85.1682 20.9795V30.5223H80.7298V20.6707C80.7298 18.6736 79.8873 17.675 78.2023 17.675C77.2982 17.675 76.5482 17.9633 75.9523 18.5398C75.377 19.1162 75.0893 19.9295 75.0893 20.9795V30.5223H70.62Z" fill="#030303"/>
        <path d="M105.722 30.862C103.236 30.862 101.212 30.1311 99.6502 28.6693C98.0885 27.1869 97.3077 25.1795 97.3077 22.6472V22.4001C97.3077 19.8883 98.0885 17.8603 99.6502 16.3162C101.232 14.7721 103.215 14 105.599 14C107.859 14 109.729 14.6897 111.209 16.0691C112.709 17.4486 113.459 19.4971 113.459 22.2148V23.4501H101.839C101.9 24.7884 102.28 25.8281 102.979 26.5693C103.678 27.3105 104.633 27.681 105.846 27.681C107.777 27.681 108.897 26.9296 109.205 25.4266H113.428C113.161 27.1766 112.359 28.5252 111.024 29.4722C109.688 30.3987 107.921 30.862 105.722 30.862ZM101.9 20.7015H109.113C108.969 18.2927 107.798 17.0883 105.599 17.0883C104.592 17.0883 103.76 17.4074 103.102 18.0456C102.465 18.6633 102.065 19.5486 101.9 20.7015Z" fill="#030303"/>
        <path d="M122.764 36.4826C117.915 36.4826 115.244 34.6091 114.751 30.862H119.189C119.497 32.4267 120.689 33.2091 122.764 33.2091C125.477 33.2091 126.833 31.8914 126.833 29.2561V26.8163C126.36 27.6605 125.662 28.3708 124.737 28.9472C123.812 29.5237 122.785 29.812 121.655 29.812C119.641 29.812 117.966 29.1119 116.631 27.7119C115.295 26.3119 114.627 24.4384 114.627 22.0913V21.8751C114.627 19.5898 115.305 17.7059 116.662 16.2236C118.018 14.7412 119.703 14 121.716 14C124.079 14 125.785 14.9265 126.833 16.7794V14.3706H131.271V29.2561C131.251 31.6237 130.501 33.4149 129.021 34.6297C127.542 35.865 125.456 36.4826 122.764 36.4826ZM122.98 26.4457C124.172 26.4457 125.127 26.0546 125.847 25.2722C126.586 24.4692 126.956 23.3883 126.956 22.0295V21.8133C126.956 20.4339 126.607 19.353 125.908 18.5706C125.23 17.7883 124.285 17.3971 123.073 17.3971C121.84 17.3971 120.884 17.7986 120.206 18.6015C119.528 19.4045 119.189 20.4854 119.189 21.8442V22.0913C119.189 23.4089 119.538 24.4692 120.237 25.2722C120.936 26.0546 121.85 26.4457 122.98 26.4457Z" fill="#030303"/>
        <path d="M138.784 30.862C137.202 30.862 135.907 30.4605 134.9 29.6575C133.894 28.8546 133.39 27.6502 133.39 26.0443C133.39 22.5854 136.185 20.856 141.774 20.856H143.592V20.2074C143.592 19.1986 143.397 18.4574 143.007 17.9839C142.616 17.4897 141.938 17.2427 140.972 17.2427C139.349 17.2427 138.435 18.0045 138.229 19.528H134.007C134.13 17.6956 134.849 16.3162 136.164 15.3897C137.479 14.4632 139.175 14 141.25 14C145.75 14 148 15.9971 148 19.9912V30.5223H143.654V28.5766C142.565 30.1002 140.942 30.862 138.784 30.862ZM140.109 27.7428C141.116 27.7428 141.949 27.4855 142.606 26.9707C143.264 26.456 143.592 25.756 143.592 24.8707V23.5119H141.866C140.51 23.5119 139.483 23.6869 138.784 24.0369C138.106 24.3869 137.767 24.9737 137.767 25.7972C137.767 27.0943 138.548 27.7428 140.109 27.7428Z" fill="#030303"/>
        <path d="M106 43C106 40.2386 108.127 38 110.75 38H120.25C122.873 38 125 40.2386 125 43C125 45.7614 122.873 48 120.25 48H110.75C108.127 48 106 45.7614 106 43Z" fill="#EE2A7B"/>
        <path d="M112.88 45.1475C112.389 45.1475 112.01 45.025 111.744 44.78C111.482 44.535 111.342 44.1947 111.323 43.7592H112.132C112.169 44.2219 112.407 44.4533 112.847 44.4533C113.287 44.4533 113.507 44.2531 113.507 43.8525C113.507 43.4519 113.294 43.2517 112.869 43.2517H112.559V42.6217H112.847C113.25 42.6217 113.451 42.4369 113.451 42.0675C113.451 41.9119 113.403 41.7875 113.307 41.6942C113.215 41.5969 113.08 41.5483 112.903 41.5483C112.718 41.5483 112.568 41.6047 112.454 41.7175C112.339 41.8264 112.271 41.98 112.249 42.1783H111.456C111.478 41.7856 111.617 41.4667 111.872 41.2217C112.13 40.9767 112.48 40.8542 112.919 40.8542C113.344 40.8542 113.68 40.9592 113.928 41.1692C114.175 41.3792 114.299 41.6514 114.299 41.9858C114.299 42.4253 114.081 42.7267 113.645 42.89C113.882 42.9444 114.068 43.0572 114.205 43.2283C114.345 43.3956 114.415 43.6094 114.415 43.87C114.415 44.2628 114.279 44.5739 114.005 44.8033C113.736 45.0328 113.361 45.1475 112.88 45.1475Z" fill="white"/>
        <path d="M115.364 45.1358C115.228 45.1358 115.111 45.0872 115.015 44.99C114.919 44.8889 114.871 44.7664 114.871 44.6225C114.871 44.4825 114.919 44.3639 115.015 44.2667C115.111 44.1656 115.228 44.115 115.364 44.115C115.505 44.115 115.623 44.1656 115.719 44.2667C115.815 44.3639 115.863 44.4825 115.863 44.6225C115.863 44.7664 115.815 44.8889 115.719 44.99C115.623 45.0872 115.505 45.1358 115.364 45.1358Z" fill="white"/>
        <path d="M117.898 44.4067C118.441 44.4067 118.712 43.9653 118.712 43.0825V42.8958C118.712 42.4719 118.642 42.1472 118.502 41.9217C118.365 41.6961 118.16 41.5833 117.887 41.5833C117.329 41.5833 117.05 42.0208 117.05 42.8958V43.0942C117.05 43.9692 117.333 44.4067 117.898 44.4067ZM117.876 45.1475C117.347 45.1475 116.928 44.9647 116.618 44.5992C116.307 44.2336 116.152 43.7339 116.152 43.1V42.9017C116.152 42.2678 116.311 41.7681 116.629 41.4025C116.946 41.0369 117.364 40.8542 117.881 40.8542C118.402 40.8542 118.82 41.0331 119.134 41.3908C119.448 41.7486 119.605 42.2464 119.605 42.8842V43.0767C119.605 43.7144 119.449 44.22 119.139 44.5933C118.832 44.9628 118.411 45.1475 117.876 45.1475Z" fill="white"/>
        <path d="M0 18.4375C0 8.25475 8.25475 0 18.4375 0H40.5625C50.7452 0 59 8.25475 59 18.4375V40.5625C59 50.7452 50.7452 59 40.5625 59H18.4375C8.25475 59 0 50.7452 0 40.5625V18.4375Z" fill="#2D9CDB"/>
        <path d="M0 18.4375C0 8.25475 8.25475 0 18.4375 0H40.5625C50.7452 0 59 8.25475 59 18.4375V40.5625C59 50.7452 50.7452 59 40.5625 59H18.4375C8.25475 59 0 50.7452 0 40.5625V18.4375Z" fill="#2D9CDB"/>
        <rect x="12" y="14" width="36" height="22" rx="2" fill="white"/>
        <rect x="16" y="17" width="28" height="15" rx="2" fill="#2D9CDB"/>
        <rect x="12" y="38" width="36" height="7" rx="2" fill="white"/>
        <circle cx="43" cy="42" r="1" fill="#2D9CDB"/>
        <path d="M178.871 27.088C178.24 27.088 177.745 26.912 177.386 26.56C177.027 26.2007 176.847 25.6433 176.847 24.888V21.247H177.43V24.855C177.43 26.0063 177.954 26.582 179.003 26.582C179.509 26.582 179.949 26.4207 180.323 26.098C180.697 25.768 180.884 25.317 180.884 24.745V21.247H181.467V27H180.884V25.9C180.745 26.2373 180.495 26.5197 180.136 26.747C179.777 26.9743 179.355 27.088 178.871 27.088ZM182.997 27V21.247H183.58V22.369C183.719 22.0317 183.972 21.7457 184.339 21.511C184.706 21.2763 185.131 21.159 185.615 21.159C186.253 21.159 186.752 21.346 187.111 21.72C187.478 22.094 187.661 22.6733 187.661 23.458V27H187.078V23.425C187.078 22.2517 186.546 21.665 185.483 21.665C184.97 21.665 184.522 21.83 184.141 22.16C183.767 22.49 183.58 22.941 183.58 23.513V27H182.997ZM189.157 27V21.247H189.74V27H189.157ZM189.729 19.894C189.656 19.9747 189.561 20.015 189.443 20.015C189.326 20.015 189.227 19.9747 189.146 19.894C189.066 19.8133 189.025 19.7143 189.025 19.597C189.025 19.487 189.066 19.3917 189.146 19.311C189.227 19.2303 189.326 19.19 189.443 19.19C189.561 19.19 189.656 19.2303 189.729 19.311C189.81 19.3917 189.85 19.487 189.85 19.597C189.85 19.7143 189.81 19.8133 189.729 19.894ZM192.872 27L190.661 21.247H191.299L193.257 26.417L195.204 21.247H195.798L193.631 27H192.872ZM198.844 27.088C198.015 27.088 197.352 26.8203 196.853 26.285C196.362 25.7497 196.116 25.0493 196.116 24.184V24.096C196.116 23.2307 196.362 22.5267 196.853 21.984C197.352 21.434 197.986 21.159 198.756 21.159C199.489 21.159 200.091 21.401 200.56 21.885C201.037 22.3617 201.275 23.0547 201.275 23.964V24.173H196.721C196.736 24.9503 196.923 25.548 197.282 25.966C197.649 26.384 198.169 26.593 198.844 26.593C199.849 26.593 200.45 26.1933 200.648 25.394H201.231C201.114 25.9367 200.842 26.3547 200.417 26.648C199.992 26.9413 199.467 27.088 198.844 27.088ZM196.743 23.7H200.67C200.641 23.018 200.457 22.5083 200.12 22.171C199.79 21.8263 199.335 21.654 198.756 21.654C198.199 21.654 197.737 21.841 197.37 22.215C197.003 22.5817 196.794 23.0767 196.743 23.7ZM202.361 27V21.247H202.944V22.457C203.318 21.6283 203.967 21.1993 204.891 21.17V21.72C203.593 21.7713 202.944 22.468 202.944 23.81V27H202.361ZM207.583 27.099C206.916 27.099 206.388 26.9377 205.999 26.615C205.618 26.285 205.409 25.8413 205.372 25.284H205.933C206.043 26.164 206.593 26.604 207.583 26.604C208.06 26.604 208.423 26.505 208.672 26.307C208.922 26.1017 209.046 25.823 209.046 25.471C209.046 25.119 208.936 24.8623 208.716 24.701C208.496 24.5397 208.104 24.4077 207.539 24.305C206.813 24.173 206.3 23.9933 205.999 23.766C205.706 23.5387 205.559 23.183 205.559 22.699C205.559 22.2297 205.746 21.8557 206.12 21.577C206.494 21.2983 206.938 21.159 207.451 21.159C208.647 21.159 209.314 21.6797 209.453 22.721H208.892C208.753 22.0097 208.269 21.654 207.44 21.654C207.037 21.654 206.711 21.7493 206.461 21.94C206.219 22.1233 206.098 22.369 206.098 22.677C206.098 22.9997 206.208 23.2417 206.428 23.403C206.656 23.557 207.07 23.6853 207.671 23.788C208.353 23.9127 208.845 24.085 209.145 24.305C209.453 24.525 209.607 24.899 209.607 25.427C209.607 25.9257 209.428 26.329 209.068 26.637C208.716 26.945 208.221 27.099 207.583 27.099ZM212.224 27.088C211.637 27.088 211.164 26.9487 210.805 26.67C210.453 26.384 210.277 25.977 210.277 25.449C210.277 24.833 210.526 24.3893 211.025 24.118C211.523 23.8467 212.172 23.711 212.972 23.711H214.171V23.194C214.171 22.6587 214.053 22.27 213.819 22.028C213.591 21.7787 213.225 21.654 212.719 21.654C211.765 21.654 211.226 22.061 211.102 22.875H210.53C210.596 22.303 210.834 21.874 211.245 21.588C211.655 21.302 212.154 21.159 212.741 21.159C214.083 21.159 214.754 21.8373 214.754 23.194V27H214.171V26.12C213.753 26.7653 213.104 27.088 212.224 27.088ZM212.268 26.615C212.803 26.615 213.254 26.4757 213.621 26.197C213.987 25.9183 214.171 25.5663 214.171 25.141V24.162H212.994C212.561 24.162 212.194 24.195 211.894 24.261C211.6 24.327 211.355 24.459 211.157 24.657C210.959 24.855 210.86 25.119 210.86 25.449C210.86 26.2263 211.329 26.615 212.268 26.615ZM216.264 27V18.497H216.858V27H216.264ZM178.629 38.099C177.962 38.099 177.434 37.9377 177.045 37.615C176.664 37.285 176.455 36.8413 176.418 36.284H176.979C177.089 37.164 177.639 37.604 178.629 37.604C179.106 37.604 179.469 37.505 179.718 37.307C179.967 37.1017 180.092 36.823 180.092 36.471C180.092 36.119 179.982 35.8623 179.762 35.701C179.542 35.5397 179.15 35.4077 178.585 35.305C177.859 35.173 177.346 34.9933 177.045 34.766C176.752 34.5387 176.605 34.183 176.605 33.699C176.605 33.2297 176.792 32.8557 177.166 32.577C177.54 32.2983 177.984 32.159 178.497 32.159C179.692 32.159 180.36 32.6797 180.499 33.721H179.938C179.799 33.0097 179.315 32.654 178.486 32.654C178.083 32.654 177.756 32.7493 177.507 32.94C177.265 33.1233 177.144 33.369 177.144 33.677C177.144 33.9997 177.254 34.2417 177.474 34.403C177.701 34.557 178.116 34.6853 178.717 34.788C179.399 34.9127 179.89 35.085 180.191 35.305C180.499 35.525 180.653 35.899 180.653 36.427C180.653 36.9257 180.473 37.329 180.114 37.637C179.762 37.945 179.267 38.099 178.629 38.099ZM183.368 38.077C182.914 38.077 182.565 37.9487 182.323 37.692C182.081 37.4353 181.96 37.076 181.96 36.614V32.742H181.113V32.247H181.96V30.938H182.543V32.247H184.05V32.742H182.543V36.57C182.543 37.2447 182.829 37.582 183.401 37.582C183.643 37.582 183.885 37.5417 184.127 37.461V37.956C183.9 38.0367 183.647 38.077 183.368 38.077ZM187.482 37.593C188.113 37.593 188.63 37.373 189.033 36.933C189.444 36.493 189.649 35.9063 189.649 35.173V35.085C189.649 34.3443 189.444 33.754 189.033 33.314C188.623 32.874 188.106 32.654 187.482 32.654C186.852 32.654 186.331 32.8777 185.92 33.325C185.51 33.765 185.304 34.3517 185.304 35.085V35.173C185.304 35.899 185.506 36.4857 185.909 36.933C186.32 37.373 186.844 37.593 187.482 37.593ZM189.451 37.274C188.916 37.8167 188.256 38.088 187.471 38.088C186.687 38.088 186.027 37.813 185.491 37.263C184.963 36.713 184.699 36.0163 184.699 35.173V35.085C184.699 34.2343 184.967 33.534 185.502 32.984C186.038 32.434 186.698 32.159 187.482 32.159C188.274 32.159 188.934 32.4303 189.462 32.973C189.99 33.5157 190.254 34.216 190.254 35.074V35.162C190.254 36.02 189.987 36.724 189.451 37.274ZM191.352 38V32.247H191.935V33.457C192.309 32.6283 192.958 32.1993 193.882 32.17V32.72C192.584 32.7713 191.935 33.468 191.935 34.81V38H191.352ZM196.986 38.088C196.157 38.088 195.493 37.8203 194.995 37.285C194.503 36.7497 194.258 36.0493 194.258 35.184V35.096C194.258 34.2307 194.503 33.5267 194.995 32.984C195.493 32.434 196.128 32.159 196.898 32.159C197.631 32.159 198.232 32.401 198.702 32.885C199.178 33.3617 199.417 34.0547 199.417 34.964V35.173H194.863C194.877 35.9503 195.064 36.548 195.424 36.966C195.79 37.384 196.311 37.593 196.986 37.593C197.99 37.593 198.592 37.1933 198.79 36.394H199.373C199.255 36.9367 198.984 37.3547 198.559 37.648C198.133 37.9413 197.609 38.088 196.986 38.088ZM194.885 34.7H198.812C198.782 34.018 198.599 33.5083 198.262 33.171C197.932 32.8263 197.477 32.654 196.898 32.654C196.34 32.654 195.878 32.841 195.512 33.215C195.145 33.5817 194.936 34.0767 194.885 34.7Z" fill="#414141"/>
        <line x1="165.5" y1="16" x2="165.5" y2="41" stroke="#EBEBEB"/>
    </g>
    <defs>
        <clipPath id="clip0_580_8451">
            <rect width="235" height="59" fill="white"/>
        </clipPath>
    </defs>
</svg>
