<svg width="235" height="59" viewBox="0 0 235 59" fill="none" xmlns="http://www.w3.org/2000/svg">
<g clip-path="url(#clip0_1185_18233)">
<g clip-path="url(#clip1_1185_18233)">
<path d="M207 7C207 4.23858 209.127 2 211.75 2H221.25C223.873 2 226 4.23858 226 7C226 9.76142 223.873 12 221.25 12H211.75C209.127 12 207 9.76142 207 7Z" fill="#EE2A7B"/>
<path d="M213.88 9.1475C213.389 9.1475 213.01 9.025 212.744 8.78C212.482 8.535 212.342 8.19472 212.323 7.75917H213.132C213.169 8.22194 213.407 8.45333 213.847 8.45333C214.287 8.45333 214.507 8.25306 214.507 7.8525C214.507 7.45194 214.294 7.25167 213.869 7.25167H213.559V6.62167H213.847C214.25 6.62167 214.451 6.43694 214.451 6.0675C214.451 5.91194 214.403 5.7875 214.307 5.69417C214.215 5.59694 214.08 5.54833 213.903 5.54833C213.718 5.54833 213.568 5.60472 213.454 5.7175C213.339 5.82639 213.271 5.98 213.249 6.17833H212.456C212.478 5.78556 212.617 5.46667 212.872 5.22167C213.13 4.97667 213.48 4.85417 213.919 4.85417C214.344 4.85417 214.68 4.95917 214.928 5.16917C215.175 5.37917 215.299 5.65139 215.299 5.98583C215.299 6.42528 215.081 6.72667 214.645 6.89C214.882 6.94444 215.068 7.05722 215.205 7.22833C215.345 7.39556 215.415 7.60944 215.415 7.87C215.415 8.26278 215.279 8.57389 215.005 8.80333C214.736 9.03278 214.361 9.1475 213.88 9.1475Z" fill="white"/>
<path d="M216.364 9.13583C216.228 9.13583 216.111 9.08722 216.015 8.99C215.919 8.88889 215.871 8.76639 215.871 8.6225C215.871 8.4825 215.919 8.36389 216.015 8.26667C216.111 8.16556 216.228 8.115 216.364 8.115C216.505 8.115 216.623 8.16556 216.719 8.26667C216.815 8.36389 216.863 8.4825 216.863 8.6225C216.863 8.76639 216.815 8.88889 216.719 8.99C216.623 9.08722 216.505 9.13583 216.364 9.13583Z" fill="white"/>
<path d="M218.898 8.40667C219.441 8.40667 219.712 7.96528 219.712 7.0825V6.89583C219.712 6.47194 219.642 6.14722 219.502 5.92167C219.365 5.69611 219.16 5.58333 218.887 5.58333C218.329 5.58333 218.05 6.02083 218.05 6.89583V7.09417C218.05 7.96917 218.333 8.40667 218.898 8.40667ZM218.876 9.1475C218.347 9.1475 217.928 8.96472 217.618 8.59917C217.307 8.23361 217.152 7.73389 217.152 7.1V6.90167C217.152 6.26778 217.311 5.76806 217.629 5.4025C217.946 5.03694 218.364 4.85417 218.881 4.85417C219.402 4.85417 219.82 5.03306 220.134 5.39083C220.448 5.74861 220.605 6.24639 220.605 6.88417V7.07667C220.605 7.71444 220.449 8.22 220.139 8.59333C219.832 8.96278 219.411 9.1475 218.876 9.1475Z" fill="white"/>
<path d="M0 18.4375C0 8.25475 8.25475 0 18.4375 0H40.5625C50.7452 0 59 8.25475 59 18.4375V40.5625C59 50.7452 50.7452 59 40.5625 59H18.4375C8.25475 59 0 50.7452 0 40.5625V18.4375Z" fill="#2D9CDB"/>
<path d="M0 18.4375C0 8.25475 8.25475 0 18.4375 0H40.5625C50.7452 0 59 8.25475 59 18.4375V40.5625C59 50.7452 50.7452 59 40.5625 59H18.4375C8.25475 59 0 50.7452 0 40.5625V18.4375Z" fill="#2D9CDB"/>
<rect x="12" y="14" width="36" height="22" rx="2" fill="white"/>
<rect x="16" y="17" width="28" height="15" rx="2" fill="#2D9CDB"/>
<rect x="12" y="38" width="36" height="7" rx="2" fill="white"/>
<circle cx="43" cy="42" r="1" fill="#2D9CDB"/>
<path d="M77.456 43V14.758H85.286V19.078C86.042 17.638 87.176 16.45 88.688 15.514C90.2 14.578 91.946 14.11 93.926 14.11C97.85 14.11 100.478 15.748 101.81 19.024C104.006 15.748 107.174 14.11 111.314 14.11C114.086 14.11 116.318 15.01 118.01 16.81C119.738 18.61 120.602 21.31 120.602 24.91V43H112.826V25.774C112.826 22.282 111.35 20.536 108.398 20.536C106.814 20.536 105.5 21.04 104.456 22.048C103.448 23.056 102.944 24.478 102.944 26.314V43H95.168V25.774C95.168 22.282 93.692 20.536 90.74 20.536C89.156 20.536 87.842 21.04 86.798 22.048C85.79 23.056 85.286 24.478 85.286 26.314V43H77.456ZM140.304 43.594C135.948 43.594 132.402 42.316 129.666 39.76C126.93 37.168 125.562 33.658 125.562 29.23V28.798C125.562 24.406 126.93 20.86 129.666 18.16C132.438 15.46 135.912 14.11 140.088 14.11C144.048 14.11 147.324 15.316 149.916 17.728C152.544 20.14 153.858 23.722 153.858 28.474V30.634H133.5C133.608 32.974 134.274 34.792 135.498 36.088C136.722 37.384 138.396 38.032 140.52 38.032C143.904 38.032 145.866 36.718 146.406 34.09H153.804C153.336 37.15 151.932 39.508 149.592 41.164C147.252 42.784 144.156 43.594 140.304 43.594ZM133.608 25.828H146.244C145.992 21.616 143.94 19.51 140.088 19.51C138.324 19.51 136.866 20.068 135.714 21.184C134.598 22.264 133.896 23.812 133.608 25.828ZM171.511 53.422C163.015 53.422 158.335 50.146 157.471 43.594H165.247C165.787 46.33 167.875 47.698 171.511 47.698C176.263 47.698 178.639 45.394 178.639 40.786V36.52C177.811 37.996 176.587 39.238 174.967 40.246C173.347 41.254 171.547 41.758 169.567 41.758C166.039 41.758 163.105 40.534 160.765 38.086C158.425 35.638 157.255 32.362 157.255 28.258V27.88C157.255 23.884 158.443 20.59 160.819 17.998C163.195 15.406 166.147 14.11 169.675 14.11C173.815 14.11 176.803 15.73 178.639 18.97V14.758H186.415V40.786C186.379 44.926 185.065 48.058 182.473 50.182C179.881 52.342 176.227 53.422 171.511 53.422ZM171.889 35.872C173.977 35.872 175.651 35.188 176.911 33.82C178.207 32.416 178.855 30.526 178.855 28.15V27.772C178.855 25.36 178.243 23.47 177.019 22.102C175.831 20.734 174.175 20.05 172.051 20.05C169.891 20.05 168.217 20.752 167.029 22.156C165.841 23.56 165.247 25.45 165.247 27.826V28.258C165.247 30.562 165.859 32.416 167.083 33.82C168.307 35.188 169.909 35.872 171.889 35.872ZM200.927 43.594C198.155 43.594 195.887 42.892 194.123 41.488C192.359 40.084 191.477 37.978 191.477 35.17C191.477 29.122 196.373 26.098 206.165 26.098H209.351V24.964C209.351 23.2 209.009 21.904 208.325 21.076C207.641 20.212 206.453 19.78 204.761 19.78C201.917 19.78 200.315 21.112 199.955 23.776H192.557C192.773 20.572 194.033 18.16 196.337 16.54C198.641 14.92 201.611 14.11 205.247 14.11C213.131 14.11 217.073 17.602 217.073 24.586V43H209.459V39.598C207.551 42.262 204.707 43.594 200.927 43.594ZM203.249 38.14C205.013 38.14 206.471 37.69 207.623 36.79C208.775 35.89 209.351 34.666 209.351 33.118V30.742H206.327C203.951 30.742 202.151 31.048 200.927 31.66C199.739 32.272 199.145 33.298 199.145 34.738C199.145 37.006 200.513 38.14 203.249 38.14Z" fill="#030303"/>
</g>
</g>
<defs>
<clipPath id="clip0_1185_18233">
<rect width="235" height="59" fill="white"/>
</clipPath>
<clipPath id="clip1_1185_18233">
<rect width="235" height="59" fill="white"/>
</clipPath>
</defs>
</svg>
