<svg width="242" height="36" viewBox="0 0 242 36" fill="none" xmlns="http://www.w3.org/2000/svg">
<path fill-rule="evenodd" clip-rule="evenodd" d="M17.9898 22.6824C18.0065 21.2212 17.9998 19.5284 17.9904 18.113C17.9882 18.1141 17.9848 18.1158 17.9826 18.1169C17.9732 17.7488 17.9122 17.4393 17.7996 17.1744C17.5013 17.9624 16.9097 18.7167 16.2715 19.1502C16.2765 19.1485 15.701 19.4974 14.8825 19.989C10.6619 22.493 4.37029 26.13 2.10582 27.4604C0.263855 28.5421 0.000480552 29.6656 0.00657976 30.4351C-0.0150447 32.9103 0.0254313 33.5242 0.0038068 36C0.484535 35.7221 13.5174 28.0669 16.2366 26.4716C17.9233 25.4818 17.9821 24.5652 17.9782 23.7957C17.9804 23.7478 17.9904 23.701 17.9904 23.6531C17.9904 23.3357 17.9898 23.0099 17.9898 22.6824Z" fill="#E77A12"/>
<path fill-rule="evenodd" clip-rule="evenodd" d="M1.81642 6.11949C2.53391 6.63246 6.78506 9.19001 6.8089 9.2041C6.80391 4.52532 6.79837 0.00212097 6.79837 -0.000133514C4.28882 1.49708 3.29687 1.99032 1.46544 3.2705C0.947008 3.63353 0.515073 3.98134 0.416931 4.22317C0.643156 4.9047 1.06955 5.48644 1.81642 6.11949Z" fill="#E77A12"/>
<path fill-rule="evenodd" clip-rule="evenodd" d="M1.70017 14.3571C0.968816 13.8588 0.252437 13.2297 0.0178946 12.3402C0.0151222 17.5545 0.0101318 25.1792 0.0101318 25.1792C0.0101318 25.1792 3.53714 23.1887 5.36801 21.9086C6.28622 21.2659 6.76306 20.1938 6.8174 19.0669C6.8174 19.0545 6.8174 18.7755 6.81629 17.3256C6.75863 17.2907 2.05558 14.5736 1.70017 14.3571Z" fill="#E77A12"/>
<path fill-rule="evenodd" clip-rule="evenodd" d="M1.77425 13.9834C1.77591 13.9845 1.80031 13.9992 1.83469 14.0194C1.85243 14.0313 1.86851 14.0476 1.88515 14.0589C1.90289 14.0702 4.07476 15.3459 6.81608 16.9547C6.81663 16.9547 6.81663 16.9547 6.81719 16.9547V16.9507C8.83769 18.1368 11.1027 19.4705 13.1094 20.647C13.8407 20.2202 15.5307 19.245 16.3131 18.6622C17.0206 18.1086 17.3489 17.5426 17.6239 16.8194C17.4326 16.484 17.2075 15.75 16.2371 15.1519C15.8363 14.905 10.7268 11.9157 6.81941 9.62308V9.61801C6.81608 9.61576 6.81275 9.6135 6.80887 9.61125C4.74678 8.40096 1.64173 6.5582 1.73932 6.58187C1.10057 6.14895 0.509498 5.3947 0.210636 4.60608C0.0880978 4.89413 0.0204519 5.22503 0.0204519 5.63653C0.0204519 5.64274 0.0204519 5.85244 0.0198975 6.20757C0.0243332 6.70195 0.0276601 7.16137 0.0276601 7.45393C0.0243332 8.50694 0.0204519 9.8604 0.0204519 11.0848C0.0204519 12.2178 0.844954 13.3678 1.77425 13.9834Z" fill="#FFAA00"/>
<path d="M39.8076 21.598C39.8076 18.577 38.6957 17.0665 36.472 17.0665C35.9895 17.0665 35.5069 17.1295 35.0244 17.2553C34.5629 17.3812 34.1853 17.5385 33.8916 17.7274V26.2553C34.1223 26.2972 34.416 26.3392 34.7727 26.3811C35.1293 26.4021 35.5174 26.4126 35.937 26.4126C37.2167 26.4126 38.1817 25.9721 38.8321 25.0909C39.4824 24.2098 39.8076 23.0455 39.8076 21.598ZM44.5908 21.7238C44.5908 23.0455 44.3915 24.2413 43.9929 25.3112C43.6153 26.3811 43.0593 27.2937 42.3251 28.049C41.5908 28.8042 40.6887 29.3916 39.6188 29.8112C38.5489 30.2098 37.3321 30.4091 35.9685 30.4091C35.402 30.4091 34.8041 30.3776 34.1748 30.3147C33.5664 30.2727 32.958 30.2098 32.3496 30.1259C31.7622 30.042 31.1958 29.9476 30.6503 29.8427C30.1049 29.7168 29.6224 29.5909 29.2028 29.465V6.33581L33.8916 5.58057V13.8253C34.416 13.5945 34.9615 13.4162 35.5279 13.2903C36.0943 13.1644 36.7027 13.1015 37.3531 13.1015C38.5279 13.1015 39.5664 13.3113 40.4684 13.7309C41.3705 14.1295 42.1258 14.7064 42.7342 15.4616C43.3426 16.2169 43.8041 17.1295 44.1188 18.1994C44.4335 19.2483 44.5908 20.4231 44.5908 21.7238ZM63.6768 21.6924C63.6768 22.9931 63.488 24.1888 63.1104 25.2798C62.7328 26.3497 62.1873 27.2727 61.474 28.049C60.7608 28.8042 59.9006 29.3916 58.8936 29.8112C57.9076 30.2308 56.7958 30.4406 55.558 30.4406C54.3412 30.4406 53.2293 30.2308 52.2224 29.8112C51.2364 29.3916 50.3867 28.8042 49.6734 28.049C48.9601 27.2727 48.4042 26.3497 48.0056 25.2798C47.607 24.1888 47.4077 22.9931 47.4077 21.6924C47.4077 20.3917 47.607 19.2064 48.0056 18.1364C48.4252 17.0665 48.9916 16.1539 49.7049 15.3987C50.4392 14.6435 51.2993 14.056 52.2853 13.6365C53.2923 13.2169 54.3832 13.0071 55.558 13.0071C56.7538 13.0071 57.8447 13.2169 58.8307 13.6365C59.8377 14.056 60.6978 14.6435 61.4111 15.3987C62.1244 16.1539 62.6803 17.0665 63.0789 18.1364C63.4775 19.2064 63.6768 20.3917 63.6768 21.6924ZM58.8936 21.6924C58.8936 20.2448 58.5999 19.112 58.0125 18.2938C57.4461 17.4546 56.6279 17.035 55.558 17.035C54.4881 17.035 53.6594 17.4546 53.072 18.2938C52.4846 19.112 52.1909 20.2448 52.1909 21.6924C52.1909 23.1399 52.4846 24.2937 53.072 25.1539C53.6594 25.993 54.4881 26.4126 55.558 26.4126C56.6279 26.4126 57.4461 25.993 58.0125 25.1539C58.5999 24.2937 58.8936 23.1399 58.8936 21.6924ZM71.3054 21.598C71.3054 23.0455 71.6306 24.2098 72.281 25.0909C72.9313 25.9721 73.8963 26.4126 75.176 26.4126C75.5956 26.4126 75.9837 26.4021 76.3404 26.3811C76.697 26.3392 76.9907 26.2972 77.2215 26.2553V17.7274C76.9278 17.5385 76.5397 17.3812 76.0572 17.2553C75.5956 17.1295 75.1236 17.0665 74.6411 17.0665C72.4173 17.0665 71.3054 18.577 71.3054 21.598ZM81.9103 29.465C81.4907 29.5909 81.0082 29.7168 80.4627 29.8427C79.9173 29.9476 79.3404 30.042 78.732 30.1259C78.1446 30.2098 77.5362 30.2727 76.9068 30.3147C76.2984 30.3776 75.711 30.4091 75.1446 30.4091C73.7809 30.4091 72.5642 30.2098 71.4942 29.8112C70.4243 29.4126 69.5222 28.8462 68.788 28.1119C68.0537 27.3567 67.4873 26.4546 67.0887 25.4056C66.7111 24.3357 66.5223 23.1399 66.5223 21.8182C66.5223 20.4756 66.6901 19.2693 67.0257 18.1994C67.3614 17.1085 67.8439 16.1854 68.4733 15.4302C69.1027 14.6749 69.8684 14.098 70.7705 13.6994C71.6935 13.3008 72.7425 13.1015 73.9173 13.1015C74.5677 13.1015 75.1446 13.1644 75.6481 13.2903C76.1725 13.4162 76.697 13.5945 77.2215 13.8253V6.33581L81.9103 5.58057V29.465ZM100.505 13.4477C99.5606 16.6364 98.5746 19.6259 97.5466 22.4161C96.5186 25.2063 95.3963 27.9126 94.1795 30.535C93.7389 31.479 93.2984 32.2762 92.8578 32.9266C92.4172 33.5979 91.9347 34.1433 91.4103 34.5629C90.8858 35.0035 90.2879 35.3181 89.6166 35.507C88.9662 35.7167 88.2005 35.8216 87.3194 35.8216C86.5851 35.8216 85.9033 35.7482 85.2739 35.6014C84.6656 35.4755 84.1621 35.3286 83.7635 35.1608L84.5816 31.4161C85.0641 31.5839 85.4942 31.6993 85.8718 31.7622C86.2495 31.8252 86.6481 31.8566 87.0676 31.8566C87.9068 31.8566 88.5466 31.6259 88.9872 31.1643C89.4487 30.7238 89.8368 30.1049 90.1515 29.3077C89.0816 27.2098 88.0117 24.8602 86.9418 22.2588C85.8718 19.6364 84.8649 16.6994 83.9208 13.4477H88.8928C89.1026 14.2658 89.3438 15.1574 89.6166 16.1225C89.9103 17.0665 90.2145 18.0315 90.5292 19.0176C90.8438 19.9826 91.1585 20.9266 91.4732 21.8497C91.8089 22.7728 92.1235 23.6119 92.4172 24.3672C92.69 23.6119 92.9732 22.7728 93.2669 21.8497C93.5606 20.9266 93.8438 19.9826 94.1165 19.0176C94.4102 18.0315 94.683 17.0665 94.9347 16.1225C95.2074 15.1574 95.4487 14.2658 95.6585 13.4477H100.505ZM107.77 26.6329C108.63 26.6329 109.238 26.549 109.595 26.3811C109.952 26.2133 110.13 25.8881 110.13 25.4056C110.13 25.028 109.899 24.7028 109.438 24.4301C108.976 24.1364 108.273 23.8112 107.329 23.4546C106.595 23.1819 105.924 22.8986 105.315 22.6049C104.728 22.3112 104.224 21.9651 103.805 21.5665C103.385 21.1469 103.06 20.6539 102.829 20.0875C102.599 19.521 102.483 18.8392 102.483 18.042C102.483 16.4896 103.06 15.2623 104.214 14.3602C105.368 13.4581 106.952 13.0071 108.966 13.0071C109.973 13.0071 110.938 13.1015 111.861 13.2903C112.784 13.4581 113.518 13.647 114.064 13.8567L113.245 17.5071C112.7 17.3183 112.102 17.1504 111.452 17.0036C110.822 16.8567 110.109 16.7833 109.312 16.7833C107.843 16.7833 107.109 17.1924 107.109 18.0106C107.109 18.1994 107.14 18.3672 107.203 18.5141C107.266 18.6609 107.392 18.8078 107.581 18.9546C107.77 19.0805 108.022 19.2273 108.336 19.3952C108.672 19.542 109.092 19.7099 109.595 19.8987C110.623 20.2763 111.473 20.6539 112.144 21.0315C112.815 21.3882 113.34 21.7868 113.717 22.2273C114.116 22.6469 114.389 23.1189 114.536 23.6434C114.703 24.1679 114.787 24.7763 114.787 25.4686C114.787 27.1049 114.168 28.3427 112.931 29.1818C111.714 30.021 109.983 30.4406 107.738 30.4406C106.27 30.4406 105.043 30.3147 104.057 30.0629C103.092 29.8112 102.42 29.6014 102.043 29.4336L102.829 25.6259C103.627 25.9406 104.445 26.1923 105.284 26.3811C106.123 26.549 106.952 26.6329 107.77 26.6329ZM122.98 30H118.291V13.4477H122.98V30ZM123.421 8.66447C123.421 9.52461 123.137 10.2064 122.571 10.7099C122.026 11.1924 121.375 11.4337 120.62 11.4337C119.865 11.4337 119.204 11.1924 118.637 10.7099C118.092 10.2064 117.819 9.52461 117.819 8.66447C117.819 7.80434 118.092 7.13301 118.637 6.6505C119.204 6.147 119.865 5.89526 120.62 5.89526C121.375 5.89526 122.026 6.147 122.571 6.6505C123.137 7.13301 123.421 7.80434 123.421 8.66447ZM127.23 9.32531L131.919 8.57007V13.4477H137.552V17.3497H131.919V23.1714C131.919 24.1574 132.087 24.9441 132.423 25.5315C132.779 26.1189 133.482 26.4126 134.531 26.4126C135.034 26.4126 135.548 26.3707 136.073 26.2867C136.618 26.1818 137.111 26.0455 137.552 25.8776L138.213 29.528C137.646 29.7587 137.017 29.958 136.325 30.1259C135.632 30.2937 134.783 30.3776 133.776 30.3776C132.496 30.3776 131.437 30.2098 130.597 29.8741C129.758 29.5175 129.087 29.035 128.583 28.4266C128.08 27.7972 127.723 27.042 127.514 26.1609C127.325 25.2798 127.23 24.3042 127.23 23.2343V9.32531ZM139.969 21.8497C139.969 20.3812 140.189 19.1015 140.63 18.0106C141.091 16.8987 141.689 15.9756 142.423 15.2414C143.158 14.5071 143.997 13.9512 144.941 13.5735C145.906 13.1959 146.892 13.0071 147.899 13.0071C150.249 13.0071 152.105 13.7309 153.469 15.1784C154.832 16.605 155.514 18.7134 155.514 21.5036C155.514 21.7763 155.504 22.0805 155.483 22.4161C155.462 22.7308 155.441 23.014 155.42 23.2658H144.784C144.888 24.2308 145.339 24.9965 146.137 25.563C146.934 26.1294 148.004 26.4126 149.346 26.4126C150.207 26.4126 151.046 26.3392 151.864 26.1923C152.703 26.0245 153.385 25.8252 153.909 25.5944L154.539 29.4021C154.287 29.528 153.951 29.6538 153.532 29.7797C153.112 29.9056 152.64 30.0105 152.116 30.0944C151.612 30.1993 151.067 30.2832 150.479 30.3462C149.892 30.4091 149.304 30.4406 148.717 30.4406C147.228 30.4406 145.927 30.2203 144.815 29.7797C143.724 29.3392 142.811 28.7413 142.077 27.986C141.364 27.2098 140.829 26.2972 140.472 25.2483C140.137 24.1993 139.969 23.0665 139.969 21.8497ZM150.983 20.056C150.962 19.6574 150.888 19.2693 150.762 18.8917C150.658 18.5141 150.479 18.1784 150.228 17.8847C149.997 17.591 149.693 17.3497 149.315 17.1609C148.958 16.9721 148.507 16.8777 147.962 16.8777C147.437 16.8777 146.986 16.9721 146.609 17.1609C146.231 17.3288 145.916 17.5595 145.665 17.8532C145.413 18.1469 145.214 18.4931 145.067 18.8917C144.941 19.2693 144.846 19.6574 144.784 20.056H150.983Z" fill="#404040"/>
<path d="M180.207 12.0059C180.708 12.0059 181.138 12.1169 181.496 12.3389C181.854 12.5609 182.128 12.8724 182.317 13.2734C182.507 13.6709 182.602 14.1364 182.602 14.6699V15.2231H178.536C178.547 15.9142 178.719 16.4406 179.052 16.8022C179.385 17.1639 179.854 17.3447 180.459 17.3447C180.831 17.3447 181.161 17.3107 181.447 17.2427C181.734 17.1746 182.031 17.0744 182.339 16.9419V17.7261C182.042 17.8586 181.746 17.9552 181.453 18.0161C181.163 18.077 180.819 18.1074 180.421 18.1074C179.856 18.1074 179.361 17.9928 178.939 17.7637C178.52 17.5309 178.194 17.1908 177.961 16.7432C177.729 16.2956 177.612 15.7477 177.612 15.0996C177.612 14.4658 177.718 13.918 177.929 13.4561C178.144 12.9906 178.445 12.6325 178.832 12.3818C179.222 12.1312 179.68 12.0059 180.207 12.0059ZM180.196 12.7363C179.72 12.7363 179.34 12.8921 179.057 13.2036C178.774 13.5151 178.606 13.9502 178.552 14.5088H181.667C181.664 14.1579 181.608 13.8499 181.501 13.585C181.397 13.3164 181.238 13.1087 181.023 12.9619C180.808 12.8115 180.532 12.7363 180.196 12.7363ZM186.475 18.1074C185.945 18.1074 185.477 17.9982 185.073 17.7798C184.668 17.5614 184.353 17.2284 184.127 16.7808C183.902 16.3332 183.789 15.7692 183.789 15.0889C183.789 14.3763 183.907 13.7944 184.144 13.3433C184.383 12.8885 184.713 12.5519 185.132 12.3335C185.551 12.1151 186.027 12.0059 186.561 12.0059C186.854 12.0059 187.137 12.0363 187.409 12.0972C187.685 12.1545 187.91 12.2279 188.086 12.3174L187.817 13.064C187.638 12.9924 187.431 12.9279 187.194 12.8706C186.962 12.8133 186.743 12.7847 186.539 12.7847C186.131 12.7847 185.791 12.8724 185.519 13.0479C185.25 13.2233 185.048 13.4811 184.912 13.8213C184.779 14.1615 184.713 14.5804 184.713 15.0781C184.713 15.5544 184.777 15.9608 184.906 16.2974C185.039 16.634 185.234 16.8918 185.492 17.0708C185.753 17.2463 186.079 17.334 186.469 17.334C186.781 17.334 187.062 17.3018 187.312 17.2373C187.563 17.1693 187.791 17.0905 187.995 17.001V17.7959C187.798 17.8962 187.577 17.9731 187.334 18.0269C187.094 18.0806 186.808 18.1074 186.475 18.1074ZM194.467 15.0459C194.467 15.5293 194.404 15.9608 194.279 16.3403C194.153 16.7199 193.973 17.0404 193.736 17.3018C193.5 17.5632 193.214 17.7637 192.877 17.9033C192.544 18.0394 192.166 18.1074 191.744 18.1074C191.35 18.1074 190.988 18.0394 190.659 17.9033C190.333 17.7637 190.05 17.5632 189.81 17.3018C189.574 17.0404 189.389 16.7199 189.257 16.3403C189.128 15.9608 189.063 15.5293 189.063 15.0459C189.063 14.4014 189.173 13.8535 189.391 13.4023C189.61 12.9476 189.921 12.6021 190.326 12.3657C190.734 12.1258 191.219 12.0059 191.781 12.0059C192.318 12.0059 192.787 12.1258 193.188 12.3657C193.593 12.6056 193.906 12.953 194.128 13.4077C194.354 13.8589 194.467 14.4049 194.467 15.0459ZM189.987 15.0459C189.987 15.5186 190.05 15.9285 190.175 16.2759C190.301 16.6232 190.494 16.8918 190.755 17.0815C191.017 17.2713 191.353 17.3662 191.765 17.3662C192.173 17.3662 192.508 17.2713 192.77 17.0815C193.035 16.8918 193.23 16.6232 193.355 16.2759C193.48 15.9285 193.543 15.5186 193.543 15.0459C193.543 14.5768 193.48 14.1722 193.355 13.832C193.23 13.4883 193.036 13.2233 192.775 13.0371C192.514 12.8509 192.175 12.7578 191.76 12.7578C191.147 12.7578 190.698 12.9601 190.412 13.3647C190.129 13.7694 189.987 14.3298 189.987 15.0459ZM202.4 12.0059C203.048 12.0059 203.537 12.1759 203.866 12.5161C204.196 12.8527 204.36 13.3952 204.36 14.1436V18H203.479V14.1865C203.479 13.7103 203.376 13.354 203.168 13.1177C202.964 12.8778 202.66 12.7578 202.255 12.7578C201.686 12.7578 201.272 12.9225 201.014 13.252C200.756 13.5814 200.627 14.0666 200.627 14.7075V18H199.741V14.1865C199.741 13.8678 199.695 13.6029 199.602 13.3916C199.512 13.1803 199.376 13.0228 199.193 12.9189C199.014 12.8115 198.787 12.7578 198.511 12.7578C198.121 12.7578 197.808 12.8384 197.571 12.9995C197.335 13.1606 197.163 13.4006 197.056 13.7192C196.952 14.0343 196.9 14.4229 196.9 14.8848V18H196.008V12.1133H196.728L196.862 12.9458H196.911C197.029 12.7417 197.177 12.5698 197.356 12.4302C197.535 12.2905 197.736 12.1849 197.958 12.1133C198.18 12.0417 198.416 12.0059 198.667 12.0059C199.115 12.0059 199.489 12.09 199.79 12.2583C200.094 12.423 200.314 12.6755 200.45 13.0156H200.499C200.692 12.6755 200.957 12.423 201.293 12.2583C201.63 12.09 201.999 12.0059 202.4 12.0059ZM212.583 12.0059C213.232 12.0059 213.72 12.1759 214.05 12.5161C214.379 12.8527 214.544 13.3952 214.544 14.1436V18H213.663V14.1865C213.663 13.7103 213.559 13.354 213.352 13.1177C213.147 12.8778 212.843 12.7578 212.438 12.7578C211.869 12.7578 211.456 12.9225 211.198 13.252C210.94 13.5814 210.811 14.0666 210.811 14.7075V18H209.925V14.1865C209.925 13.8678 209.878 13.6029 209.785 13.3916C209.696 13.1803 209.56 13.0228 209.377 12.9189C209.198 12.8115 208.971 12.7578 208.695 12.7578C208.305 12.7578 207.991 12.8384 207.755 12.9995C207.519 13.1606 207.347 13.4006 207.239 13.7192C207.135 14.0343 207.083 14.4229 207.083 14.8848V18H206.192V12.1133H206.912L207.046 12.9458H207.094C207.212 12.7417 207.361 12.5698 207.54 12.4302C207.719 12.2905 207.92 12.1849 208.142 12.1133C208.364 12.0417 208.6 12.0059 208.851 12.0059C209.298 12.0059 209.672 12.09 209.973 12.2583C210.278 12.423 210.498 12.6755 210.634 13.0156H210.682C210.875 12.6755 211.14 12.423 211.477 12.2583C211.814 12.09 212.182 12.0059 212.583 12.0059ZM218.642 12.0059C219.143 12.0059 219.573 12.1169 219.931 12.3389C220.289 12.5609 220.563 12.8724 220.753 13.2734C220.943 13.6709 221.038 14.1364 221.038 14.6699V15.2231H216.972C216.982 15.9142 217.154 16.4406 217.487 16.8022C217.82 17.1639 218.289 17.3447 218.895 17.3447C219.267 17.3447 219.596 17.3107 219.883 17.2427C220.169 17.1746 220.466 17.0744 220.774 16.9419V17.7261C220.477 17.8586 220.182 17.9552 219.888 18.0161C219.598 18.077 219.254 18.1074 218.857 18.1074C218.291 18.1074 217.797 17.9928 217.375 17.7637C216.956 17.5309 216.63 17.1908 216.397 16.7432C216.164 16.2956 216.048 15.7477 216.048 15.0996C216.048 14.4658 216.153 13.918 216.365 13.4561C216.58 12.9906 216.88 12.6325 217.267 12.3818C217.657 12.1312 218.116 12.0059 218.642 12.0059ZM218.631 12.7363C218.155 12.7363 217.776 12.8921 217.493 13.2036C217.21 13.5151 217.042 13.9502 216.988 14.5088H220.103C220.099 14.1579 220.044 13.8499 219.937 13.585C219.833 13.3164 219.673 13.1087 219.458 12.9619C219.244 12.8115 218.968 12.7363 218.631 12.7363ZM225.227 12.0059C225.345 12.0059 225.469 12.013 225.598 12.0273C225.727 12.0381 225.841 12.0542 225.941 12.0757L225.829 12.9028C225.732 12.8778 225.625 12.8581 225.506 12.8438C225.388 12.8294 225.277 12.8223 225.173 12.8223C224.937 12.8223 224.713 12.8706 224.502 12.9673C224.294 13.0604 224.112 13.1965 223.954 13.3755C223.797 13.5509 223.673 13.764 223.583 14.0146C223.494 14.2617 223.449 14.5374 223.449 14.8418V18H222.552V12.1133H223.293L223.39 13.1982H223.428C223.549 12.9798 223.696 12.7811 223.868 12.6021C224.04 12.4194 224.239 12.2744 224.464 12.167C224.694 12.0596 224.948 12.0059 225.227 12.0059ZM229.411 18.1074C228.881 18.1074 228.414 17.9982 228.009 17.7798C227.605 17.5614 227.29 17.2284 227.064 16.7808C226.838 16.3332 226.726 15.7692 226.726 15.0889C226.726 14.3763 226.844 13.7944 227.08 13.3433C227.32 12.8885 227.649 12.5519 228.068 12.3335C228.487 12.1151 228.964 12.0059 229.497 12.0059C229.791 12.0059 230.074 12.0363 230.346 12.0972C230.621 12.1545 230.847 12.2279 231.022 12.3174L230.754 13.064C230.575 12.9924 230.367 12.9279 230.131 12.8706C229.898 12.8133 229.68 12.7847 229.476 12.7847C229.067 12.7847 228.727 12.8724 228.455 13.0479C228.187 13.2233 227.984 13.4811 227.848 13.8213C227.716 14.1615 227.649 14.5804 227.649 15.0781C227.649 15.5544 227.714 15.9608 227.843 16.2974C227.975 16.634 228.17 16.8918 228.428 17.0708C228.69 17.2463 229.015 17.334 229.406 17.334C229.717 17.334 229.998 17.3018 230.249 17.2373C230.5 17.1693 230.727 17.0905 230.931 17.001V17.7959C230.734 17.8962 230.514 17.9731 230.271 18.0269C230.031 18.0806 229.744 18.1074 229.411 18.1074ZM234.594 12.0059C235.096 12.0059 235.525 12.1169 235.883 12.3389C236.241 12.5609 236.515 12.8724 236.705 13.2734C236.895 13.6709 236.99 14.1364 236.99 14.6699V15.2231H232.924C232.935 15.9142 233.106 16.4406 233.439 16.8022C233.772 17.1639 234.242 17.3447 234.847 17.3447C235.219 17.3447 235.549 17.3107 235.835 17.2427C236.121 17.1746 236.419 17.0744 236.727 16.9419V17.7261C236.429 17.8586 236.134 17.9552 235.84 18.0161C235.55 18.077 235.207 18.1074 234.809 18.1074C234.243 18.1074 233.749 17.9928 233.327 17.7637C232.908 17.5309 232.582 17.1908 232.349 16.7432C232.116 16.2956 232 15.7477 232 15.0996C232 14.4658 232.106 13.918 232.317 13.4561C232.532 12.9906 232.833 12.6325 233.219 12.3818C233.61 12.1312 234.068 12.0059 234.594 12.0059ZM234.583 12.7363C234.107 12.7363 233.728 12.8921 233.445 13.2036C233.162 13.5151 232.994 13.9502 232.94 14.5088H236.055C236.052 14.1579 235.996 13.8499 235.889 13.585C235.785 13.3164 235.625 13.1087 235.411 12.9619C235.196 12.8115 234.92 12.7363 234.583 12.7363ZM180.142 25.0166C180.844 25.0166 181.365 25.1742 181.705 25.4893C182.045 25.8044 182.215 26.3075 182.215 26.9985V31H181.565L181.394 30.1299H181.351C181.186 30.3447 181.014 30.5256 180.835 30.6724C180.656 30.8156 180.448 30.9248 180.212 31C179.979 31.0716 179.693 31.1074 179.353 31.1074C178.994 31.1074 178.676 31.0448 178.396 30.9194C178.121 30.7941 177.902 30.6043 177.741 30.3501C177.584 30.0959 177.505 29.7736 177.505 29.3833C177.505 28.7961 177.738 28.3449 178.203 28.0298C178.669 27.7147 179.378 27.5428 180.33 27.5142L181.345 27.4712V27.1113C181.345 26.6029 181.236 26.2466 181.018 26.0425C180.799 25.8384 180.491 25.7363 180.094 25.7363C179.786 25.7363 179.492 25.7811 179.213 25.8706C178.934 25.9601 178.669 26.0658 178.418 26.1875L178.144 25.5107C178.409 25.3747 178.713 25.2583 179.057 25.1616C179.401 25.0649 179.763 25.0166 180.142 25.0166ZM181.334 28.0996L180.438 28.1372C179.703 28.1659 179.186 28.2858 178.885 28.4971C178.584 28.7083 178.434 29.0073 178.434 29.394C178.434 29.7306 178.536 29.9795 178.74 30.1406C178.944 30.3018 179.215 30.3823 179.551 30.3823C180.074 30.3823 180.502 30.2373 180.835 29.9473C181.168 29.6572 181.334 29.2222 181.334 28.6421V28.0996ZM185.696 33.6426C184.922 33.6426 184.326 33.4976 183.907 33.2075C183.488 32.9211 183.279 32.5182 183.279 31.999C183.279 31.6302 183.395 31.3151 183.628 31.0537C183.864 30.7923 184.19 30.6187 184.605 30.5327C184.451 30.4611 184.319 30.3537 184.208 30.2104C184.101 30.0672 184.047 29.9025 184.047 29.7163C184.047 29.5015 184.106 29.3135 184.224 29.1523C184.346 28.9876 184.53 28.8301 184.777 28.6797C184.469 28.5544 184.219 28.3431 184.025 28.0459C183.836 27.7451 183.741 27.396 183.741 26.9985C183.741 26.576 183.828 26.2161 184.004 25.9189C184.179 25.6182 184.434 25.389 184.767 25.2314C185.1 25.0739 185.502 24.9951 185.975 24.9951C186.079 24.9951 186.183 25.0005 186.287 25.0112C186.394 25.0184 186.496 25.0309 186.593 25.0488C186.689 25.0632 186.774 25.0811 186.845 25.1025H188.865V25.6772L187.78 25.8115C187.887 25.9512 187.977 26.1195 188.048 26.3164C188.12 26.5133 188.156 26.7318 188.156 26.9717C188.156 27.5589 187.957 28.0262 187.56 28.3735C187.162 28.7173 186.616 28.8892 185.921 28.8892C185.757 28.8892 185.588 28.8748 185.417 28.8462C185.241 28.9429 185.107 29.0503 185.014 29.1685C184.924 29.2866 184.879 29.4227 184.879 29.5767C184.879 29.6912 184.913 29.7826 184.981 29.8506C185.053 29.9186 185.155 29.9688 185.288 30.001C185.42 30.0296 185.579 30.0439 185.766 30.0439H186.802C187.443 30.0439 187.934 30.1782 188.274 30.4468C188.618 30.7153 188.79 31.1074 188.79 31.623C188.79 32.2747 188.525 32.7743 187.995 33.1216C187.465 33.4689 186.698 33.6426 185.696 33.6426ZM185.723 32.9443C186.21 32.9443 186.612 32.8942 186.931 32.7939C187.253 32.6973 187.493 32.5558 187.651 32.3696C187.812 32.187 187.893 31.9686 187.893 31.7144C187.893 31.478 187.839 31.299 187.731 31.1772C187.624 31.0591 187.466 30.9803 187.259 30.9409C187.051 30.8979 186.797 30.8765 186.496 30.8765H185.476C185.211 30.8765 184.98 30.9176 184.783 31C184.586 31.0824 184.434 31.2041 184.326 31.3652C184.222 31.5264 184.17 31.7269 184.17 31.9668C184.17 32.2855 184.305 32.5272 184.573 32.6919C184.842 32.8602 185.225 32.9443 185.723 32.9443ZM185.954 28.2393C186.38 28.2393 186.7 28.1318 186.915 27.917C187.13 27.7021 187.237 27.3888 187.237 26.9771C187.237 26.5366 187.128 26.2072 186.91 25.9888C186.691 25.7668 186.369 25.6558 185.943 25.6558C185.535 25.6558 185.22 25.7703 184.998 25.9995C184.779 26.2251 184.67 26.5563 184.67 26.9932C184.67 27.3942 184.781 27.7021 185.003 27.917C185.225 28.1318 185.542 28.2393 185.954 28.2393ZM192.292 25.0059C192.793 25.0059 193.222 25.1169 193.581 25.3389C193.939 25.5609 194.213 25.8724 194.402 26.2734C194.592 26.6709 194.687 27.1364 194.687 27.6699V28.2231H190.621C190.632 28.9142 190.804 29.4406 191.137 29.8022C191.47 30.1639 191.939 30.3447 192.544 30.3447C192.916 30.3447 193.246 30.3107 193.532 30.2427C193.819 30.1746 194.116 30.0744 194.424 29.9419V30.7261C194.127 30.8586 193.831 30.9552 193.538 31.0161C193.248 31.077 192.904 31.1074 192.506 31.1074C191.941 31.1074 191.446 30.9928 191.024 30.7637C190.605 30.5309 190.279 30.1908 190.046 29.7432C189.814 29.2956 189.697 28.7477 189.697 28.0996C189.697 27.4658 189.803 26.918 190.014 26.4561C190.229 25.9906 190.53 25.6325 190.917 25.3818C191.307 25.1312 191.765 25.0059 192.292 25.0059ZM192.281 25.7363C191.805 25.7363 191.425 25.8921 191.142 26.2036C190.859 26.5151 190.691 26.9502 190.637 27.5088H193.752C193.749 27.1579 193.693 26.8499 193.586 26.585C193.482 26.3164 193.323 26.1087 193.108 25.9619C192.893 25.8115 192.617 25.7363 192.281 25.7363ZM198.989 25.0059C199.688 25.0059 200.216 25.1777 200.574 25.5215C200.932 25.8617 201.111 26.4095 201.111 27.165V31H200.23V27.2241C200.23 26.7336 200.117 26.3665 199.892 26.123C199.67 25.8796 199.328 25.7578 198.866 25.7578C198.214 25.7578 197.756 25.9422 197.491 26.311C197.226 26.6799 197.093 27.2152 197.093 27.917V31H196.202V25.1133H196.921L197.056 25.9619H197.104C197.229 25.7542 197.389 25.5806 197.582 25.4409C197.775 25.2977 197.992 25.1903 198.232 25.1187C198.472 25.0435 198.724 25.0059 198.989 25.0059ZM205.306 31.1074C204.776 31.1074 204.308 30.9982 203.904 30.7798C203.499 30.5614 203.184 30.2284 202.958 29.7808C202.733 29.3332 202.62 28.7692 202.62 28.0889C202.62 27.3763 202.738 26.7944 202.975 26.3433C203.215 25.8885 203.544 25.5519 203.963 25.3335C204.382 25.1151 204.858 25.0059 205.392 25.0059C205.685 25.0059 205.968 25.0363 206.24 25.0972C206.516 25.1545 206.742 25.2279 206.917 25.3174L206.648 26.064C206.469 25.9924 206.262 25.9279 206.025 25.8706C205.793 25.8133 205.574 25.7847 205.37 25.7847C204.962 25.7847 204.622 25.8724 204.35 26.0479C204.081 26.2233 203.879 26.4811 203.743 26.8213C203.61 27.1615 203.544 27.5804 203.544 28.0781C203.544 28.5544 203.608 28.9608 203.737 29.2974C203.87 29.634 204.065 29.8918 204.323 30.0708C204.584 30.2463 204.91 30.334 205.3 30.334C205.612 30.334 205.893 30.3018 206.144 30.2373C206.394 30.1693 206.622 30.0905 206.826 30.001V30.7959C206.629 30.8962 206.409 30.9731 206.165 31.0269C205.925 31.0806 205.639 31.1074 205.306 31.1074ZM207.293 25.1133H208.249L209.549 28.5293C209.624 28.7298 209.694 28.9232 209.758 29.1094C209.823 29.292 209.88 29.4674 209.93 29.6357C209.98 29.804 210.02 29.967 210.048 30.1245H210.086C210.136 29.9455 210.208 29.7109 210.301 29.4209C210.394 29.1273 210.494 28.8283 210.602 28.5239L211.832 25.1133H212.793L210.231 31.8647C210.095 32.2264 209.936 32.5415 209.753 32.8101C209.574 33.0786 209.355 33.2845 209.098 33.4277C208.84 33.5745 208.528 33.6479 208.163 33.6479C207.995 33.6479 207.846 33.6372 207.717 33.6157C207.588 33.5978 207.477 33.5763 207.384 33.5513V32.8369C207.463 32.8548 207.558 32.8709 207.669 32.8853C207.784 32.8996 207.902 32.9067 208.023 32.9067C208.245 32.9067 208.437 32.8638 208.598 32.7778C208.763 32.6955 208.904 32.5737 209.022 32.4126C209.141 32.2515 209.243 32.0599 209.329 31.8379L209.651 31.0107L207.293 25.1133Z" fill="#404040"/>
<line x1="167.5" y1="8" x2="167.5" y2="34" stroke="#E0E0E0"/>
</svg>
