<svg width="16" height="17" viewBox="0 0 16 17" fill="none" xmlns="http://www.w3.org/2000/svg">
<path d="M12.6667 1.16666H3.33333C1.49533 1.16666 0 2.66199 0 4.49999V12.5C0 14.338 1.49533 15.8333 3.33333 15.8333H12.6667C14.5047 15.8333 16 14.338 16 12.5V4.49999C16 2.66199 14.5047 1.16666 12.6667 1.16666ZM14.6667 12.5C14.6667 13.6027 13.7693 14.5 12.6667 14.5H3.33333C2.23067 14.5 1.33333 13.6027 1.33333 12.5V4.49999C1.33333 3.39732 2.23067 2.49999 3.33333 2.49999H12.6667C13.7693 2.49999 14.6667 3.39732 14.6667 4.49999V12.5ZM12.6667 5.16666C12.6667 5.53466 12.368 5.83332 12 5.83332H7.33333C6.96533 5.83332 6.66667 5.53466 6.66667 5.16666C6.66667 4.79866 6.96533 4.49999 7.33333 4.49999H12C12.368 4.49999 12.6667 4.79866 12.6667 5.16666ZM5.33333 5.16666C5.33333 5.71866 4.88533 6.16666 4.33333 6.16666C3.78133 6.16666 3.33333 5.71866 3.33333 5.16666C3.33333 4.61466 3.78133 4.16666 4.33333 4.16666C4.88533 4.16666 5.33333 4.61466 5.33333 5.16666ZM12.6667 8.49999C12.6667 8.86799 12.368 9.16666 12 9.16666H7.33333C6.96533 9.16666 6.66667 8.86799 6.66667 8.49999C6.66667 8.13199 6.96533 7.83332 7.33333 7.83332H12C12.368 7.83332 12.6667 8.13199 12.6667 8.49999ZM5.33333 8.49999C5.33333 9.05199 4.88533 9.49999 4.33333 9.49999C3.78133 9.49999 3.33333 9.05199 3.33333 8.49999C3.33333 7.94799 3.78133 7.49999 4.33333 7.49999C4.88533 7.49999 5.33333 7.94799 5.33333 8.49999ZM12.6667 11.8333C12.6667 12.2013 12.368 12.5 12 12.5H7.33333C6.96533 12.5 6.66667 12.2013 6.66667 11.8333C6.66667 11.4653 6.96533 11.1667 7.33333 11.1667H12C12.368 11.1667 12.6667 11.4653 12.6667 11.8333ZM5.33333 11.8333C5.33333 12.3853 4.88533 12.8333 4.33333 12.8333C3.78133 12.8333 3.33333 12.3853 3.33333 11.8333C3.33333 11.2813 3.78133 10.8333 4.33333 10.8333C4.88533 10.8333 5.33333 11.2813 5.33333 11.8333Z" fill="#656565"/>
</svg>
