<svg width="24" height="24" viewBox="0 0 24 24" fill="none" xmlns="http://www.w3.org/2000/svg">
<rect width="24" height="24" rx="12" fill="#FF0000"/>
<path fill-rule="evenodd" clip-rule="evenodd" d="M17.869 7.07003C18.5115 7.24301 19.0181 7.7496 19.191 8.3921C19.5123 9.5659 19.4999 12.0123 19.4999 12.0123C19.4999 12.0123 19.4999 14.4464 19.191 15.6202C19.0181 16.2627 18.5115 16.7693 17.869 16.9423C16.6952 17.2512 12 17.2512 12 17.2512C12 17.2512 7.31712 17.2512 6.13097 16.93C5.48846 16.757 4.98188 16.2504 4.8089 15.6079C4.5 14.4464 4.5 12 4.5 12C4.5 12 4.5 9.5659 4.8089 8.3921C4.98188 7.7496 5.50082 7.23066 6.13097 7.05767C7.30477 6.74878 12 6.74878 12 6.74878C12 6.74878 16.6952 6.74878 17.869 7.07003ZM14.4093 12L10.5049 14.2488V9.75125L14.4093 12Z" fill="white"/>
</svg>
