<?xml version="1.0" encoding="UTF-8"?>
<!-- Generated by Pixelmator Pro 3.3.2 -->
<svg width="97" height="96" viewBox="0 0 97 96" xmlns="http://www.w3.org/2000/svg" xmlns:xlink="http://www.w3.org/1999/xlink">
    <path id="Path" fill="#ffffff" stroke="none" d="M 20.7348 14.503502 C 18.57 12.132698 14.8662 12.048698 12.5963 14.318497 C 10.3239 16.590797 10.4084 20.301598 12.7813 22.468002 L 28.8528 37.140999 C 30.6852 38.8139 33.508202 38.75 35.263 36.9953 C 37.019901 35.238499 37.084301 32.408901 35.408798 30.573898 L 20.7348 14.503502 Z"/>
    <path id="path1" fill="#ffffff" stroke="none" d="M 47.151501 0 C 43.944801 0 41.379398 2.677887 41.525501 5.891617 L 42.513699 27.630501 C 42.626598 30.115501 44.6731 32.065701 47.151501 32.065701 C 49.629902 32.065701 51.6763 30.115501 51.789299 27.630501 L 52.7775 5.891609 C 52.923599 2.677879 50.3582 0 47.151501 0 Z"/>
    <path id="path2" fill="#ffffff" stroke="none" d="M 81.672501 14.318497 C 79.402603 12.048698 75.698799 12.132698 73.533997 14.503502 L 58.860001 30.573898 C 57.184502 32.408901 57.248901 35.238499 59.005798 36.995201 C 60.760601 38.75 63.583599 38.8139 65.416 37.140999 L 81.487503 22.468002 C 83.860397 20.301598 83.944901 16.590797 81.672501 14.318497 Z"/>
    <path id="path3" fill="#ffffff" stroke="none" d="M 96.008904 48.862099 C 96.008904 45.645199 93.324799 43.0868 90.121498 43.232399 L 68.381203 44.220501 C 65.905197 44.333099 63.9492 46.374401 63.9492 48.862099 C 63.9492 51.349899 65.905197 53.391201 68.381203 53.5037 L 90.121498 54.491798 C 93.324799 54.637402 96.008904 52.078999 96.008904 48.862099 Z"/>
    <path id="path4" fill="#ffffff" stroke="none" d="M 65.416 60.596401 C 63.583599 58.9235 60.760601 58.9874 59.005798 60.7421 C 57.248901 62.498901 57.184502 65.328499 58.860001 67.163498 L 73.533997 83.234001 C 75.698799 85.604797 79.402603 85.688698 81.672501 83.418999 C 83.944901 81.146698 83.860397 77.435898 81.487503 75.269402 L 65.416 60.596401 Z"/>
    <path id="path5" fill="#ffffff" stroke="none" d="M 51.285301 44.7066 C 49.5341 42.955502 46.708599 42.9175 44.910999 44.620399 L 1.92878 85.337601 C -0.595136 87.7285 -0.649357 91.732399 1.80924 94.190804 C 4.26542 96.646896 8.26241 96.593002 10.6515 94.071297 L 51.371498 51.091999 C 53.0769 49.292 53.038601 46.459801 51.285301 44.7066 Z"/>
</svg>
